<?xml version="1.0" encoding="UTF-8" standalone="no"?>
<!-- Created with Inkscape (http://www.inkscape.org/) -->

<svg
   width="174.89651mm"
   height="161.55075mm"
   viewBox="0 0 174.89651 161.55075"
   version="1.1"
   id="svg5"
   inkscape:version="1.1.2 (0a00cf5339, 2022-02-04)"
   sodipodi:docname="Eksempel1-8.svg"
   xmlns:inkscape="http://www.inkscape.org/namespaces/inkscape"
   xmlns:sodipodi="http://sodipodi.sourceforge.net/DTD/sodipodi-0.dtd"
   xmlns="http://www.w3.org/2000/svg"
   xmlns:svg="http://www.w3.org/2000/svg">
  <sodipodi:namedview
     id="namedview7"
     pagecolor="#ffffff"
     bordercolor="#666666"
     borderopacity="1.0"
     inkscape:pageshadow="2"
     inkscape:pageopacity="0.0"
     inkscape:pagecheckerboard="0"
     inkscape:document-units="mm"
     showgrid="false"
     inkscape:snap-global="false"
     fit-margin-top="0"
     fit-margin-left="0"
     fit-margin-right="0"
     fit-margin-bottom="0"
     inkscape:zoom="0.52499536"
     inkscape:cx="-231.43062"
     inkscape:cy="476.19468"
     inkscape:window-width="1920"
     inkscape:window-height="1011"
     inkscape:window-x="0"
     inkscape:window-y="0"
     inkscape:window-maximized="1"
     inkscape:current-layer="g38" />
  <defs
     id="defs2">
    <clipPath
       clipPathUnits="userSpaceOnUse"
       id="clipPath366">
      <rect
         style="fill:#0000ff;fill-rule:evenodd"
         id="rect368"
         width="983.84338"
         height="983.84338"
         x="4.8552332"
         y="173.54594" />
    </clipPath>
  </defs>
  <g
     inkscape:label="Layer 1"
     inkscape:groupmode="layer"
     id="layer1"
     transform="translate(-0.49070853,-0.38099608)">
    <g
       id="g38"
       transform="matrix(0.26458333,0,0,0.26458333,2.5726067,-34.813651)">
      <g
         id="g15"
         transform="matrix(0.71996693,0,0,0.71996693,-33.798723,-6.0277897)">
        <path
           fill="#000000"
           d="m 355.958,1040.52 c 0,0 0,0 0,0 1.117,-0.78 2.449,-1.33 3.35,-2.35 1.585,-1.81 3,-3.82 3.993,-6 1.25,-2.76 2.149,-5.69 2.669,-8.67 0.122,-0.7 -0.782,-1.26 -0.813,-1.97 -0.03,-0.71 0.687,-1.32 0.642,-2.03 -0.039,-0.62 -0.44,-1.19 -0.873,-1.63 -0.686,-0.7 -1.461,-1.41 -2.398,-1.69 -0.399,-0.12 -0.654,0.72 -1.065,0.65 -2.05,-0.33 -3.92,-1.44 -5.966,-1.8 -0.519,-0.09 -1.123,0.13 -1.503,0.49 -0.582,0.56 -0.97,1.33 -1.196,2.11 -1.728,5.9 -4.296,11.72 -4.645,17.86 -0.12,2.1 1.734,3.98 3.323,5.36 0.762,0.66 2.015,0.21 3.02,0.13 m 1.026,-11.19 c 0,0 0,0 0,0 -0.121,-0.77 -0.644,-1.59 -0.364,-2.32 0.168,-0.44 0.974,-0.55 1.371,-0.3 0.394,0.24 0.48,0.92 0.313,1.36 m 3.685,-1.74 c 0,0 0,0 0,0 -0.164,-0.43 -0.488,-0.82 -0.493,-1.28 -0.005,-0.47 0.003,-1.31 0.466,-1.31 0.461,-0.01 0.463,0.84 0.467,1.3 m 49.993,-1.98 c 0,0 0,0 0,0 0.775,-0.77 1.671,-1.45 2.325,-2.33 1.324,-1.79 2.501,-3.69 3.577,-5.64 0.172,-0.31 0.125,-0.7 0.124,-1.06 -0.003,-1 0.215,-2.07 -0.135,-3.02 -0.299,-0.81 -1.252,-1.21 -1.702,-1.94 -0.18,-0.3 -0.197,-0.69 -0.118,-1.03 0.163,-0.69 0.706,-1.27 0.821,-1.97 0.164,-1.01 0.437,-2.14 -10e-4,-3.06 -0.592,-1.24 -1.79,-2.12 -2.869,-2.97 -0.408,-0.33 -0.968,-0.43 -1.486,-0.48 -0.681,-0.073 -1.406,-0.116 -2.05,0.12 -0.963,0.35 -1.912,0.85 -2.636,1.58 -1.08,1.08 -2.032,2.33 -2.666,3.73 -0.199,0.43 -0.114,1.21 0.328,1.39 0.942,0.39 2.161,0.49 3.056,0 0.602,-0.33 0.148,-1.43 0.572,-1.97 0.602,-0.77 1.415,-1.46 2.346,-1.73 0.774,-0.23 1.824,-0.24 2.396,0.33 0.486,0.48 0.368,1.47 0.009,2.06 -0.945,1.53 -2.669,2.46 -3.7,3.94 -0.287,0.41 -0.487,1.19 -0.098,1.51 1.419,1.16 3.456,1.35 4.927,2.45 0.304,0.22 0.036,0.78 -0.119,1.13 -0.421,0.93 -0.915,1.85 -1.576,2.63 -1.131,1.33 -2.279,2.73 -3.759,3.66 -0.579,0.37 -1.383,0.15 -2.052,0 -0.382,-0.08 -0.6,-0.76 -0.974,-0.65 -0.599,0.18 -1.384,0.71 -1.322,1.33 0.096,0.96 0.809,1.96 1.689,2.37 1.099,0.51 2.422,0.17 3.629,0.08 m -321.0011,-4.13 c 0,0 0,0 0,0 1.597,-2.22 3.3078,-4.36 4.7912,-6.66 0.7594,-1.18 1.3832,-2.45 1.9204,-3.74 0.6598,-1.59 1.3125,-3.2 1.6611,-4.89 0.2104,-1.02 0.2675,-2.11 -0.0054,-3.11 -0.2662,-0.98 -0.8351,-1.902 -1.5545,-2.616 -1.0961,-1.086 -2.3946,-1.993 -3.7787,-2.676 -0.4005,-0.197 -0.919,-0.018 -1.331,0.155 -0.8515,0.356 -1.6794,0.811 -2.388,1.402 -1.3771,1.15 -2.4789,2.605 -3.8255,3.785 -0.3211,0.28 -0.8937,0.24 -1.1414,0.59 -1.0805,1.52 -1.7362,3.31 -2.7415,4.88 -0.5675,0.89 -1.5483,1.51 -1.9631,2.48 -0.2766,0.64 -0.2923,1.46 -5e-4,2.1 1.1952,2.62 2.8077,5.03 4.3637,7.45 0.2329,0.36 0.5456,0.79 0.972,0.85 m 3.7367,-7.32 c 0,0 0,0 0,0 0.4367,-0.12 0.8573,-0.35 1.31,-0.36 0.1452,0 0.4045,0.25 0.2817,0.33 -0.387,0.24 -0.8749,0.32 -1.3326,0.33 m 302.4885,-5.31 c 0,0 0,0 0,0 1.078,-0.74 2.225,-1.4 3.232,-2.24 0.617,-0.51 1.503,-0.99 1.61,-1.79 0.062,-0.45 -0.843,-0.42 -1.304,-0.47 -0.681,-0.08 -1.409,-0.12 -2.05,0.12 -1.052,0.39 -1.831,1.36 -2.892,1.72 -0.656,0.23 -1.435,0.24 -2.08,-0.01 -0.581,-0.23 -1.097,-0.74 -1.325,-1.32 -0.254,-0.65 -0.254,-1.44 -0.015,-2.09 0.968,-2.634 1.833,-5.424 3.578,-7.624 1.607,-2.026 4.483,-2.736 6.184,-4.683 0.441,-0.505 0.15,-1.551 -0.368,-1.976 -0.53,-0.433 -1.429,-0.287 -2.054,-0.008 -1.361,0.609 -2.521,1.608 -3.664,2.566 -1.12,0.938 -2.234,1.922 -3.098,3.1 -0.828,1.129 -1.382,2.444 -1.919,3.737 -0.659,1.589 -1.35,3.195 -1.661,4.888 -0.245,1.34 -0.388,2.79 0.017,4.09 0.269,0.86 1.081,1.52 1.869,1.97 0.734,0.42 1.638,0.5 2.482,0.5 m -324.541,-1.48 c 0,0 0,0 0,0 0.3018,-0.34 0.6877,-0.62 0.9055,-1.02 0.1025,-0.19 0.1093,-0.46 0.0019,-0.65 -0.4865,-0.84 -1.5811,-1.38 -1.7307,-2.34 -0.0906,-0.58 0.8795,-0.82 1.1576,-1.33 0.974,-1.818 2.0467,-3.63 2.5724,-5.621 0.35,-1.326 0.3261,-2.782 -0.0035,-4.113 -0.2591,-1.047 -0.934,-1.992 -1.6967,-2.754 -0.7155,-0.715 -1.6756,-1.16 -2.6094,-1.548 -0.3423,-0.142 -0.7911,-0.185 -1.1122,0 -1.8795,1.085 -3.8201,2.174 -5.34,3.723 -0.3883,0.396 -0.2509,1.2 0.0551,1.663 0.261,0.394 0.8739,0.408 1.3449,0.453 0.6718,0.064 1.4569,0.24 2.0201,-0.132 1.0045,-0.663 1.3442,-2.076 2.3431,-2.747 0.4602,-0.309 1.2,-0.251 1.6625,0.055 0.3947,0.261 0.4253,0.873 0.4547,1.345 0.084,1.349 0.2911,2.766 -0.1186,4.055 -0.6379,2.006 -1.57,3.993 -2.9468,5.591 -1.055,1.22 -2.8628,1.53 -4.1023,2.56 -0.4029,0.34 -0.9229,0.96 -0.6819,1.42 0.4425,0.86 1.3875,1.46 2.3116,1.73 1.2966,0.38 2.7017,0.21 4.0497,0.12 m 32.0255,-2.96 c 0,0 0,0 0,0 -0.434,-0.43 -0.794,-0.94 -1.3019,-1.27 -0.9139,-0.6 -2.309,-0.59 -2.9189,-1.5 -0.2995,-0.44 0.6653,-0.93 1.1731,-1.1 0.6473,-0.222 1.4481,-0.322 2.0523,0 0.9679,0.51 1.8129,1.35 2.3249,2.32 0.3192,0.61 0.4319,1.54 -0.0136,2.05 m -48.1232,-4.829 c 0,0 0,0 0,0 -1.0618,-0.847 -2.0084,-1.864 -3.1855,-2.542 -0.4853,-0.279 -1.2217,0.097 -1.6614,-0.249 -0.774,-0.611 -1.7027,-1.426 -1.7126,-2.411 -0.0173,-1.734 0.9812,-3.333 1.6391,-4.937 0.5314,-1.295 1.1816,-2.546 1.9184,-3.737 0.2591,-0.418 0.5992,-0.831 1.0421,-1.047 1.5076,-0.733 3.1804,-1.074 4.714,-1.751 0.1885,-0.083 0.3692,-0.287 0.3727,-0.493 0.0088,-0.514 -0.0794,-1.06 -0.3386,-1.504 -0.2253,-0.385 -0.6031,-0.958 -1.0361,-0.849 -1.9994,0.505 -3.8739,1.476 -5.6431,2.536 -0.8531,0.511 -1.544,1.291 -2.1107,2.108 -0.768,1.107 -1.4069,2.323 -1.8459,3.597 -0.7954,2.308 -1.4515,4.68 -1.8367,7.091 -0.0815,0.511 0.2036,1.034 0.4678,1.479 0.2494,0.42 0.6357,0.753 1.03,1.041 0.9289,0.678 1.7915,1.61 2.9181,1.839 M 250.959,960.523 c 0,0 0,0 0,0 1.11,-1.446 2.324,-2.817 3.328,-4.338 0.918,-1.389 1.5,-2.983 2.424,-4.369 0.423,-0.634 1.247,-0.964 1.587,-1.646 1.059,-2.128 2.298,-4.296 2.548,-6.659 0.109,-1.034 -0.932,-1.874 -1.561,-2.701 -0.489,-0.642 -0.962,-1.539 -1.759,-1.662 -2.982,-0.458 -6.07,-0.458 -9.052,0 -0.797,0.123 -1.25,1.036 -1.759,1.662 -0.94,1.157 -2.292,2.198 -2.566,3.664 -0.617,3.293 -0.617,6.759 0,10.052 0.274,1.466 1.624,2.508 2.566,3.664 0.687,0.844 1.41,1.691 2.304,2.312 0.424,0.295 0.996,0.336 1.513,0.341 m -2.987,-12.021 c 0,0 0,0 0,0 -0.456,-0.113 -1.395,0.13 -1.369,-0.339 0.05,-0.888 0.733,-1.771 1.513,-2.198 0.365,-0.199 0.303,0.801 0.28,1.216 m 5.36,0.157 c 0,0 0,0 0,0 -0.057,-1.062 -0.517,-2.18 -0.172,-3.186 0.153,-0.443 0.977,-0.558 1.372,-0.306 0.401,0.255 0.481,0.938 0.326,1.388 m 25.11,-12.037 c 0,0 0,0 0,0 0.659,-5.823 1.214,-11.658 1.976,-17.467 0.245,-1.869 0.819,-3.686 1.044,-5.557 0.081,-0.67 0.107,-1.389 -0.134,-2.019 -0.19,-0.497 -0.818,-1.629 -1.086,-1.169 -1.31,2.25 -1.419,5.036 -2.534,7.39 -0.126,0.266 -0.443,-0.445 -0.734,-0.492 -0.184,-0.03 -0.351,0.156 -0.472,0.297 -1.209,1.412 -2.068,3.156 -3.5,4.341 -0.36,0.298 -1.018,-0.002 -1.367,-0.313 -0.26,-0.231 -0.141,-0.685 -0.142,-1.032 -0.005,-1.017 -0.179,-2.078 0.122,-3.05 0.331,-1.071 1.53,-1.786 1.718,-2.891 0.126,-0.734 -0.4,-1.482 -0.874,-2.055 -0.251,-0.304 -0.85,-0.642 -1.124,-0.36 -1.185,1.216 -1.925,2.806 -2.72,4.306 -0.167,0.314 -0.124,0.704 -0.124,1.06 0,1.683 -0.285,3.415 0.124,5.048 0.236,0.942 0.869,1.893 1.729,2.344 0.785,0.411 1.795,0.152 2.659,-0.046 0.607,-0.139 1.181,-0.489 1.618,-0.932 1.028,-1.046 1.272,-3.759 2.71,-3.468 1.322,0.269 0.29,2.705 0.131,4.045 -0.125,1.045 -0.868,1.958 -0.97,3.006 -0.225,2.321 -0.132,4.666 0,6.993 0.03,0.52 0.2,1.048 0.482,1.484 0.237,0.366 0.604,0.676 1.013,0.826 m -19.714,-12.111 c 0,0 0,0 0,0 1.504,-0.843 3.196,-1.414 4.511,-2.529 0.772,-0.655 1.163,-1.675 1.549,-2.611 0.137,-0.333 0.142,-0.762 -0.027,-1.079 -0.102,-0.19 -0.433,-0.24 -0.629,-0.149 -2.274,1.057 -4.307,2.622 -6.645,3.529 -0.489,0.19 -1.076,-0.099 -1.535,-0.353 -0.379,-0.211 -0.692,-0.576 -0.862,-0.976 -0.138,-0.323 -0.153,-0.738 0,-1.055 0.248,-0.514 0.838,-0.797 1.13,-1.288 1.232,-2.071 1.822,-4.568 3.424,-6.368 1.661,-1.867 4.674,-2.299 6.109,-4.345 0.51,-0.728 -0.731,-1.802 -1.535,-2.18 -0.431,-0.203 -0.642,0.731 -1.061,0.959 -1.101,0.6 -2.423,0.781 -3.45,1.5 -1.183,0.83 -2.274,1.856 -3.063,3.066 -1.78,2.726 -3.474,5.566 -4.574,8.63 -0.46,1.28 -0.223,2.74 0.011,4.08 0.074,0.43 0.5,0.747 0.87,0.977 0.443,0.274 0.965,0.465 1.485,0.482 M 234.96,756.523 c 0,0 0,0 0,0 0.695,-0.855 1.232,-1.869 2.086,-2.567 1.014,-0.828 2.359,-1.163 3.421,-1.928 0.703,-0.507 1.386,-1.104 1.826,-1.851 1.045,-1.775 2.133,-3.606 2.573,-5.618 0.433,-1.982 0.402,-4.1 -0.015,-6.085 -0.162,-0.773 -0.973,-1.278 -1.626,-1.724 -1.477,-1.008 -3.016,-1.982 -4.697,-2.592 -0.485,-0.176 -1.091,0.038 -1.509,0.34 -1.074,0.774 -1.817,1.933 -2.829,2.787 -1.101,0.93 -2.758,1.31 -3.492,2.55 -1.365,2.305 -1.96,5.01 -2.533,7.626 -0.087,0.396 0.636,0.633 0.634,1.039 -0.001,0.388 -0.523,0.601 -0.641,0.971 -0.111,0.345 -0.135,0.745 -0.019,1.088 0.532,1.568 1.004,3.206 1.938,4.572 0.552,0.808 1.429,1.462 2.369,1.73 m 20.513,-40.338 c 0,0 0,0 0,0 0.295,-0.33 0.71,-0.584 0.884,-0.991 0.139,-0.325 0.241,-0.81 -0.008,-1.061 -0.329,-0.33 -0.901,-0.379 -1.362,-0.314 -0.385,0.054 -0.601,0.755 -0.974,0.642 -0.604,-0.182 -1.365,-0.709 -1.338,-1.34 0.145,-3.374 1.42,-6.613 1.825,-9.966 0.161,-1.331 0.227,-2.728 -0.135,-4.019 -0.166,-0.595 -0.82,-1.591 -1.349,-1.272 -1.5,0.905 -2.036,2.882 -3.312,4.083 -0.746,0.702 -1.667,1.292 -2.661,1.538 -0.391,0.097 -0.644,-0.524 -1.035,-0.623 -0.139,-0.036 -0.33,0.132 -0.331,0.276 -0.007,0.796 -0.254,1.805 0.309,2.367 0.492,0.49 1.424,0.238 2.082,0.019 1.068,-0.355 1.818,-1.89 2.924,-1.685 0.781,0.144 0.452,1.532 0.52,2.323 0.058,0.675 0.04,1.375 -0.146,2.026 -0.108,0.378 -0.626,0.562 -0.704,0.948 -0.233,1.146 0.587,2.636 -0.199,3.501 -1.196,1.316 -5.12,0.347 -4.898,2.11 0.236,1.877 3.542,1.368 5.388,1.784 0.995,0.223 2.04,0.194 3.057,0.116 m -17.538,-8.46 c 0,0 0,0 0,0 0.917,-0.746 1.901,-1.417 2.751,-2.239 0.073,-0.07 -0.111,-0.173 -0.184,-0.244 -0.322,-0.31 -0.599,-0.693 -0.999,-0.893 -0.308,-0.154 -0.691,-0.197 -1.026,-0.118 -0.694,0.162 -1.271,0.706 -1.974,0.821 -1.004,0.164 -2.079,0.294 -3.052,-10e-4 -0.598,-0.181 -1.097,-0.743 -1.325,-1.325 -0.253,-0.645 -0.309,-1.454 -0.011,-2.08 1.593,-3.352 3.207,-6.782 5.579,-9.636 1.177,-1.416 3.355,-1.612 4.76,-2.803 0.401,-0.34 0.344,-1.01 0.358,-1.536 0.004,-0.146 -0.162,-0.299 -0.307,-0.314 -1.014,-0.097 -2.102,-0.369 -3.054,-0.008 -1.384,0.524 -2.586,1.504 -3.64,2.543 -1.227,1.211 -2.211,2.66 -3.122,4.124 -1.327,2.131 -2.753,4.257 -3.574,6.63 -0.442,1.276 -0.277,2.709 -0.123,4.051 0.075,0.647 0.33,1.329 0.795,1.786 0.731,0.717 1.643,1.326 2.636,1.579 1.309,0.333 2.702,0.206 4.05,0.123 M 932.789,584.684 c 0,0 0,0 0,0 2.811,-1.144 5.764,-1.987 8.432,-3.433 1.065,-0.576 1.61,-1.837 2.595,-2.54 1.356,-0.966 3.048,-1.407 4.368,-2.422 1.519,-1.169 2.931,-2.52 4.065,-4.064 0.791,-1.076 1.308,-2.367 1.617,-3.666 0.237,-1.001 0.505,-2.198 -0.015,-3.085 -0.845,-1.445 -2.752,-1.996 -3.747,-3.341 -0.33,-0.445 -0.195,-1.163 0.047,-1.661 0.375,-0.776 1.465,-1.117 1.701,-1.946 0.368,-1.299 0.218,-2.719 0,-4.052 -0.1,-0.61 -0.491,-1.168 -0.926,-1.607 -0.688,-0.696 -1.419,-1.508 -2.372,-1.729 -1.66,-0.384 -3.446,-0.36 -5.112,-0.003 -1.246,0.267 -2.475,0.904 -3.362,1.819 -0.365,0.377 -0.157,1.102 0.071,1.575 0.27,0.559 0.778,1.013 1.322,1.313 0.307,0.17 0.748,0.173 1.054,0 0.749,-0.423 1.166,-1.334 1.947,-1.693 0.614,-0.283 1.35,-0.2 2.022,-0.133 0.518,0.052 1.042,0.208 1.485,0.481 0.37,0.23 0.749,0.558 0.87,0.977 0.189,0.657 0.315,1.445 0,2.052 -0.701,1.35 -1.789,2.485 -2.898,3.526 -0.836,0.786 -2.153,1.001 -2.872,1.894 -0.332,0.411 -0.165,1.11 0.07,1.583 0.275,0.553 0.752,1.111 1.349,1.27 0.377,0.101 0.588,-0.589 0.974,-0.651 1.013,-0.166 2.101,-0.32 3.08,-0.01 0.925,0.294 1.799,0.925 2.342,1.729 0.315,0.467 0.162,1.161 -0.035,1.689 -0.357,0.959 -0.949,1.826 -1.576,2.634 -0.606,0.78 -1.301,1.508 -2.095,2.095 -1.71,1.264 -3.648,2.196 -5.38,3.43 -0.6,0.427 -0.909,1.251 -1.588,1.536 -3.395,1.424 -7.087,2.062 -10.467,3.52 -0.436,0.188 -0.983,0.943 -0.641,1.271 m -562.156,-9.519 c 0,0 0,0 0,0 0.308,-0.523 1.393,-1.184 0.924,-1.571 -1.716,-1.416 -4.121,-1.693 -6.103,-2.703 -0.283,-0.144 -0.686,-0.413 -0.62,-0.723 0.657,-3.051 2.494,-5.85 2.704,-8.963 0.157,-2.334 -0.663,-4.698 -1.642,-6.822 -0.521,-1.132 -1.558,-2.08 -2.695,-2.592 -0.936,-0.422 -2.09,-0.283 -3.08,-0.011 -0.988,0.27 -1.844,0.928 -2.636,1.577 -0.986,0.809 -2.023,1.648 -2.652,2.757 -0.231,0.408 -0.091,1.136 0.314,1.37 0.593,0.343 1.413,0.241 2.054,0 0.349,-0.131 0.273,-0.722 0.547,-0.975 0.718,-0.665 1.511,-1.266 2.373,-1.728 0.312,-0.167 0.706,-0.158 1.056,-0.109 0.512,0.073 1.062,0.163 1.48,0.468 0.732,0.534 1.6,1.11 1.869,1.976 0.405,1.3 0.335,2.761 0.015,4.085 -0.561,2.318 -1.511,4.547 -2.615,6.662 -0.472,0.905 -1.614,1.353 -2.049,2.277 -0.141,0.299 0.336,0.597 0.609,0.784 1.599,1.096 3.251,2.124 4.963,3.032 1.172,0.622 2.375,1.245 3.666,1.546 m -22.634,-17.347 c 0,0 0,0 0,0 -0.241,-0.484 -0.626,-0.919 -0.722,-1.451 -0.893,-4.989 -1.335,-10.052 -2.231,-15.041 -0.064,-0.354 -0.308,-0.713 -0.628,-0.879 -0.361,-0.187 -0.996,-0.418 -1.218,-0.077 -1.216,1.866 -1.466,4.259 -2.709,6.106 -1.138,1.691 -2.635,3.179 -4.316,4.331 -0.696,0.478 -1.69,0.557 -2.508,0.349 -0.605,-0.154 -1.198,-0.713 -1.325,-1.325 -0.346,-1.657 -0.443,-3.443 -0.011,-5.08 0.45,-1.707 1.571,-3.176 2.573,-4.63 0.458,-0.663 1.035,-1.305 1.76,-1.658 0.402,-0.195 0.919,-0.017 1.331,0.155 0.944,0.392 1.649,1.462 2.67,1.51 0.624,0.029 1.384,-0.701 1.327,-1.323 -0.072,-0.798 -0.981,-1.287 -1.609,-1.785 -0.803,-0.636 -1.656,-1.281 -2.636,-1.577 -0.861,-0.261 -1.865,-0.374 -2.699,-0.036 -0.869,0.352 -1.496,1.179 -2.026,1.952 -1.391,2.03 -3.043,4.019 -3.691,6.392 -0.622,2.277 -0.71,4.833 0.011,7.08 0.478,1.493 1.948,2.576 3.325,3.325 0.885,0.483 2.017,0.212 3.023,0.134 0.519,-0.04 1.07,-0.168 1.485,-0.483 1.055,-0.799 1.797,-1.957 2.828,-2.787 0.74,-0.596 1.873,-2.217 2.446,-1.461 1.666,2.198 1.473,5.323 2.44,7.905 0.122,0.326 0.463,0.549 0.78,0.691 0.313,0.141 0.683,0.168 1.023,0.118 m 566.466,-1.454 c 0,0 0,0 0,0 0.583,-0.901 1.069,-1.873 1.75,-2.704 0.507,-0.619 1.009,-1.811 1.783,-1.608 1.157,0.303 1.274,2.215 2.369,2.696 1.125,0.494 2.557,0.449 3.687,-0.036 2.095,-0.9 4.06,-2.253 5.589,-3.945 1.646,-1.824 3.04,-4.002 3.719,-6.363 0.617,-2.142 0.781,-4.586 0.036,-6.687 -0.483,-1.36 -2.016,-2.222 -3.372,-2.718 -1.268,-0.465 -2.714,-0.187 -4.052,-10e-4 -0.709,0.098 -1.268,0.739 -1.977,0.837 -0.998,0.137 -2.023,0.006 -3.019,-0.148 -0.158,-0.025 -0.355,-0.213 -0.311,-0.367 1.439,-5.009 3.661,-9.803 4.701,-14.909 0.538,-2.642 0.373,-5.42 -0.017,-8.087 -0.089,-0.613 -0.732,-1.279 -1.351,-1.273 -0.612,0.006 -1.131,0.71 -1.299,1.298 -0.107,0.376 0.568,0.593 0.651,0.975 0.148,0.68 0.192,1.414 0.017,2.087 -1.738,6.674 -3.999,13.205 -5.736,19.879 -0.176,0.673 -0.239,1.439 0.016,2.086 0.228,0.579 0.712,1.2 1.324,1.316 0.692,0.132 1.295,-0.702 2,-0.685 1.044,0.027 1.982,0.814 3.027,0.812 0.713,-0.001 1.271,-0.706 1.974,-0.821 1.013,-0.167 2.102,-0.322 3.08,-0.01 0.917,0.294 1.641,1.042 2.31,1.733 0.155,0.16 0.086,0.457 0.012,0.665 -0.911,2.559 -1.518,5.29 -2.952,7.596 -0.861,1.383 -2.427,2.181 -3.734,3.153 -0.77,0.573 -1.797,2.145 -2.476,1.468 -1.696,-1.693 -1.5,-4.591 -2.72,-6.653 -0.179,-0.304 -0.707,0.176 -0.978,0.401 -0.838,0.692 -1.642,1.445 -2.301,2.309 -1.629,2.137 -3.532,4.17 -4.538,6.662 -0.235,0.583 0.706,1.15 1.295,1.37 m -336.644,-7.29 c 0,0 0,0 0,0 0.035,-0.52 0.502,-1.219 0.107,-1.559 -1.357,-1.171 -3.441,-1.273 -4.776,-2.469 -0.383,-0.343 0.086,-1.057 0.339,-1.505 0.33,-0.585 1.275,-0.826 1.354,-1.493 0.39,-3.327 0.861,-6.812 -10e-4,-10.05 -0.347,-1.302 -2.012,-1.933 -3.297,-2.338 -1.297,-0.409 -2.803,-0.456 -4.08,0.011 -1.028,0.375 -1.794,1.363 -2.316,2.323 -0.222,0.41 -0.092,1.133 0.313,1.363 0.449,0.253 1.061,-0.08 1.51,-0.333 0.586,-0.329 0.856,-1.139 1.493,-1.353 0.84,-0.284 1.873,-0.458 2.659,-0.047 0.86,0.451 1.265,1.492 1.729,2.344 0.17,0.313 0.122,0.704 0.123,1.06 10e-4,0.686 0.033,1.386 -0.116,2.056 -0.428,1.912 -0.619,3.962 -1.608,5.654 -0.549,0.939 -2.044,0.938 -2.738,1.776 -0.447,0.541 -0.981,1.614 -0.439,2.06 1.789,1.473 4.169,2.051 6.357,2.814 0.648,0.225 1.372,0.181 2.054,0.117 m -28.529,-10.471 c 0,0 0,0 0,0 0.836,-1.574 1.146,-3.574 2.509,-4.722 0.509,-0.429 0.765,1.139 1.332,1.489 1.123,0.695 2.346,1.285 3.634,1.582 0.524,0.12 1.216,0.024 1.566,-0.384 1.418,-1.65 2.478,-3.589 3.497,-5.51 1.271,-2.395 2.422,-4.862 3.356,-7.407 0.154,-0.419 0.057,-0.934 -0.145,-1.333 -0.583,-1.15 -1.045,-2.558 -2.157,-3.211 -0.887,-0.521 -2.175,-0.349 -3.084,0.133 -1.427,0.755 -2.227,2.355 -3.499,3.35 -0.213,0.167 -0.71,0.276 -0.812,0.025 -0.264,-0.644 -0.159,-1.402 -0.032,-2.086 1.11,-5.985 2.693,-11.878 3.734,-17.875 0.091,-0.521 -0.101,-1.084 -0.362,-1.543 -0.224,-0.393 -0.618,-1.096 -1.021,-0.892 -0.81,0.408 -1.369,1.328 -1.589,2.208 -2.265,9.045 -3.366,18.365 -5.814,27.363 -0.49,1.802 -2.344,3.002 -2.93,4.775 -0.425,1.283 -0.4,2.766 0.008,4.054 0.143,0.449 0.907,0.318 1.378,0.314 m 6.966,-5.998 c 0,0 0,0 0,0 -0.45,-0.44 -1.166,-0.717 -1.352,-1.318 -0.304,-0.981 -0.296,-2.094 -0.011,-3.08 0.299,-1.036 0.931,-1.994 1.696,-2.754 1.38,-1.369 2.986,-2.51 4.638,-3.534 0.3,-0.185 0.809,-0.243 1.057,0.007 0.336,0.34 0.493,0.945 0.331,1.394 -0.949,2.642 -2.173,5.192 -3.572,7.625 -0.403,0.701 -1.071,1.247 -1.765,1.66 M 330.96,512.523 c 0,0 0,0 0,0 0.443,-0.446 0.998,-0.804 1.328,-1.339 1.053,-1.702 1.625,-3.689 2.789,-5.317 0.544,-0.76 1.605,-1.005 2.231,-1.701 0.801,-0.891 1.479,-1.91 1.989,-2.995 1.012,-2.153 2.553,-4.287 2.552,-6.667 0,-2.076 -1.44,-3.93 -2.556,-5.681 -0.688,-1.079 -1.673,-1.996 -2.764,-2.665 -0.381,-0.233 -0.919,-0.018 -1.331,0.155 -0.852,0.356 -1.736,0.749 -2.388,1.402 -2.536,2.541 -5.082,5.13 -7.098,8.101 -1.577,2.323 -2.691,4.961 -3.578,7.625 -0.327,0.985 -0.322,2.128 0.004,3.113 0.552,1.667 1.422,3.264 2.552,4.608 0.695,0.826 1.747,1.318 2.756,1.7 0.64,0.243 1.368,0.188 2.05,0.122 m 276.27,-1.261 c 0,0 0,0 0,0 1.725,-0.847 3.524,-1.557 5.175,-2.541 0.83,-0.494 1.665,-1.073 2.217,-1.865 0.788,-1.128 1.377,-2.423 1.708,-3.758 0.247,-0.998 0.164,-2.072 -0.014,-3.085 -0.068,-0.386 -0.695,-0.555 -0.695,-0.947 0,-0.706 0.599,-1.301 0.695,-2.001 0.138,-1.007 0.538,-2.188 -10e-4,-3.05 -0.721,-1.153 -1.999,-2.392 -3.358,-2.319 -2.196,0.118 -4.211,1.493 -5.964,2.82 -1.25,0.946 -1.981,2.444 -2.776,3.795 -0.678,1.152 -1.31,2.369 -1.619,3.669 -0.237,1.001 -0.144,2.069 0.014,3.085 0.091,0.584 0.879,1.051 0.719,1.619 -0.271,0.959 -1.334,1.498 -1.84,2.356 -0.108,0.182 -0.072,0.482 0.08,0.63 0.694,0.677 1.405,1.468 2.339,1.731 m 288.514,-3.339 c 0,0 0,0 0,0 1.964,-1.999 4.573,-3.524 5.892,-5.997 0.792,-1.486 0.41,-3.419 0,-5.052 -0.264,-1.048 -1.16,-1.846 -1.926,-2.607 -0.694,-0.689 -1.462,-1.407 -2.398,-1.689 -0.383,-0.116 -0.619,0.542 -1.001,0.665 -0.334,0.108 -0.722,0.115 -1.054,0 -0.37,-0.129 -0.566,-0.606 -0.947,-0.695 -0.676,-0.157 -1.425,-0.237 -2.08,-0.01 -1.009,0.349 -2.204,0.746 -2.73,1.676 -1.331,2.351 -2.38,4.991 -2.568,7.686 -0.118,1.699 0.743,3.408 1.696,4.819 0.564,0.836 1.634,1.258 2.602,1.543 0.976,0.288 2.035,0.199 3.05,0.123 m -284.955,-0.168 c 0,0 0,0 0,0 -0.449,-0.105 -1.334,0.146 -1.346,-0.314 -0.011,-0.456 0.885,-0.436 1.329,-0.332 m 0.024,-2.36 c 0,0 0,0 0,0 -0.176,-0.436 -0.472,-0.841 -0.529,-1.307 -0.083,-0.682 -0.164,-1.432 0.119,-2.058 0.573,-1.27 1.509,-2.347 2.364,-3.446 0.263,-0.338 0.575,-0.678 0.971,-0.842 0.324,-0.135 0.747,-0.171 1.054,0 0.542,0.3 1.014,0.771 1.315,1.313 0.175,0.316 0.181,0.764 0.014,1.084 -0.648,1.245 -1.388,2.482 -2.386,3.469 m 280.052,-1.237 c 0,0 0,0 0,0 -0.122,-0.436 -0.36,-0.856 -0.366,-1.309 -0.003,-0.191 0.207,-0.323 0.342,-0.458 0.306,-0.307 0.575,-0.694 0.975,-0.862 0.323,-0.135 0.777,-0.207 1.052,0.012 0.21,0.167 0.138,0.592 -0.026,0.805 m -557.954,1.854 c 0,0 0,0 0,0 -0.463,-0.099 -1.211,0.141 -1.388,-0.298 -0.297,-0.738 -0.217,-1.774 0.314,-2.366 0.344,-0.383 1.062,0.076 1.508,0.333 0.375,0.214 0.899,0.578 0.82,1.002 m 278.728,-4.71 c 0,0 0,0 0,0 -0.12,-0.437 -0.351,-0.858 -0.359,-1.31 -0.002,-0.146 0.255,-0.405 0.332,-0.282 0.245,0.387 0.325,0.875 0.332,1.332 m -274.315,-0.739 c 0,0 0,0 0,0 -1.461,-1.22 -3.157,-2.204 -4.382,-3.66 -0.252,-0.299 0.119,-0.81 0.365,-1.114 0.566,-0.701 1.101,-1.758 2,-1.816 0.783,-0.051 1.33,0.911 1.749,1.574 0.716,1.131 1.509,2.355 1.58,3.691 M 132.798,359.691 c 0,0 0,0 0,0 0.838,-0.509 1.927,-0.743 2.513,-1.529 1.495,-2.005 2.765,-4.234 3.551,-6.608 0.431,-1.3 0.312,-2.775 0,-4.108 -0.233,-0.997 -0.949,-1.827 -1.577,-2.636 -0.495,-0.637 -0.975,-1.47 -1.759,-1.661 -1.636,-0.4 -3.416,-0.401 -5.052,0 -0.786,0.192 -1.304,1.001 -1.763,1.667 -1.001,1.455 -2.141,2.918 -2.573,4.63 -0.494,1.956 -0.339,4.045 -0.123,6.05 0.102,0.942 0.474,1.893 1.059,2.637 0.605,0.77 1.428,1.472 2.372,1.729 m 5.081,-11.072 c 0,0 0,0 0,0 -0.12,-0.437 -0.351,-0.858 -0.359,-1.31 -0.002,-0.146 0.255,-0.405 0.332,-0.282 0.245,0.387 0.325,0.875 0.332,1.332 m -3.305,0.26 c 0,0 0,0 0,0 -0.12,-0.437 -0.351,-0.858 -0.359,-1.31 -0.002,-0.146 0.255,-0.405 0.332,-0.282 0.245,0.387 0.325,0.875 0.332,1.332 m -15.061,-14.815 c 0,0 0,0 0,0 1.05,-0.614 2.923,-0.646 3.15,-1.841 0.192,-1.004 -1.939,-0.959 -2.447,-1.845 -0.268,-0.467 0.491,-0.994 0.511,-1.532 0.11,-3.015 0.436,-6.086 -0.123,-9.051 -0.192,-1.014 -1.06,-2.708 -2.026,-2.343 -1.997,0.755 -2.516,3.58 -4.309,4.739 -0.595,0.385 -1.325,-0.545 -2.028,-0.641 -0.185,-0.026 -0.337,0.171 -0.473,0.299 -0.315,0.299 -0.698,0.573 -0.868,0.972 -0.137,0.325 -0.227,0.794 0.007,1.057 0.313,0.352 0.869,0.42 1.339,0.455 1.005,0.075 2.072,0.206 3.022,-0.133 0.81,-0.288 1.241,-1.212 1.979,-1.652 0.124,-0.073 0.323,0.133 0.333,0.277 0.141,2.162 1.147,4.597 0.111,6.5 -0.853,1.565 -5.042,0.448 -4.864,2.222 0.2,1.983 3.489,1.96 5.355,2.662 m -15.6105,-6.31 c 0,0 0,0 0,0 -0.6018,-6.338 -0.8783,-12.714 -1.8055,-19.012 -0.0486,-0.33 -0.7473,-0.256 -0.9991,-0.038 -1.0684,0.927 -1.3613,2.854 -2.716,3.259 -1.0208,0.306 -1.7226,-1.357 -2.7547,-1.621 -1.3078,-0.336 -2.6991,-0.167 -4.0485,-0.124 -0.4469,0.015 -0.9219,0.072 -1.308,0.298 -1.2354,0.722 -2.5601,1.414 -3.4865,2.504 -1.143,1.346 -1.8171,3.035 -2.5734,4.63 -0.1523,0.321 -0.1242,0.704 -0.1234,1.06 0.0028,1.341 -0.2908,2.748 0.1342,4.02 0.2874,0.86 1.1381,1.44 1.8696,1.976 0.4199,0.308 0.9658,0.45 1.4853,0.483 1.339,0.085 2.8685,0.55 4.0228,-0.134 2.3159,-1.372 3.9589,-3.659 5.7586,-5.661 0.7698,-0.856 1.3752,-3.891 1.9156,-2.874 1.8616,3.502 1.2035,7.918 2.7146,11.585 m -11.3653,-6.063 c 0,0 0,0 0,0 -0.6802,0.048 -1.3614,0.206 -2.0405,0.144 -0.4735,-0.043 -1.18,-0.011 -1.3521,-0.454 -0.3724,-0.959 -0.2557,-2.084 -0.0229,-3.087 0.2989,-1.286 0.7506,-2.607 1.5837,-3.632 0.6727,-0.827 1.7025,-1.378 2.7278,-1.671 0.9873,-0.283 2.0979,-0.287 3.0805,0.011 0.5949,0.18 1.0145,0.778 1.3153,1.322 0.1748,0.316 0.1543,0.751 0.0148,1.084 -0.3949,0.943 -0.9117,1.854 -1.5716,2.635 M 711.796,271.695 c 0,0 0,0 0,0 1.462,-0.802 3.014,-1.458 4.387,-2.405 0.789,-0.545 1.625,-1.165 2.038,-2.031 0.851,-1.784 1.209,-3.77 1.648,-5.698 0.152,-0.669 0.191,-1.374 0.115,-2.057 -0.059,-0.531 -0.088,-1.195 -0.513,-1.518 -1.148,-0.874 -2.507,-1.527 -3.912,-1.851 -0.834,-0.193 -1.817,-0.093 -2.541,0.363 -1.321,0.831 -2.335,2.095 -3.306,3.318 -0.951,1.196 -1.371,2.784 -2.424,3.893 -0.215,0.227 -0.496,-0.612 -0.791,-0.507 -0.581,0.208 -1.164,0.682 -1.348,1.272 -0.307,0.981 -0.252,2.084 -0.015,3.085 0.309,1.299 0.81,2.603 1.619,3.666 0.385,0.506 1.117,0.701 1.75,0.76 m 3.046,-5.128 c 0,0 0,0 0,0 -0.177,-0.451 -0.476,-0.871 -0.531,-1.351 -0.077,-0.674 -0.3,-1.518 0.144,-2.03 0.301,-0.346 0.884,0.386 1.338,0.323 0.385,-0.053 0.602,-0.526 0.973,-0.642 0.335,-0.104 0.777,-0.205 1.052,0.013 0.21,0.166 0.121,0.578 -0.024,0.803 -0.676,1.047 -1.474,2.025 -2.366,2.895 m 7.585,-33.13 c 0,0 0,0 0,0 2.087,-0.721 4.314,-1.123 6.262,-2.163 0.327,-0.175 0.13,-0.852 -0.142,-1.106 -0.352,-0.328 -0.927,-0.401 -1.403,-0.336 -3.161,0.435 -6.861,-0.114 -9.396,1.823 m 6.918,-3.443 c 0,0 0,0 0,0 0.453,-0.774 1.002,-1.499 1.36,-2.321 0.947,-2.171 1.974,-4.335 2.547,-6.633 0.327,-1.312 0.202,-2.706 0.118,-4.055 -0.029,-0.471 -0.036,-1.124 -0.455,-1.339 -0.459,-0.235 -1.094,0.028 -1.509,0.333 -0.511,0.374 -0.574,1.18 -1.077,1.564 -0.73,0.556 -1.632,0.852 -2.497,1.161 -1.684,0.6 -4.677,-0.17 -5.132,1.559 -0.396,1.502 2.628,1.975 4.179,2.061 1.138,0.063 1.931,-1.234 2.986,-1.666 0.142,-0.058 0.327,0.147 0.35,0.298 0.064,0.43 0.024,0.887 -0.113,1.299 -0.753,2.265 -2.189,4.333 -2.545,6.692 -0.094,0.623 0.792,1.019 1.335,1.337 m -24.387,-3.933 c 0,0 0,0 0,0 1.128,-1.556 1.552,-4.086 3.383,-4.668 1.265,-0.402 1.757,2.115 2.972,2.649 0.931,0.41 2.127,0.424 3.052,0 1.162,-0.532 1.95,-1.672 2.759,-2.661 0.648,-0.792 1.373,-1.632 1.577,-2.636 0.34,-1.668 0.34,-3.44 0,-5.108 -0.204,-1.004 -0.929,-1.844 -1.577,-2.636 -0.809,-0.989 -1.641,-2.042 -2.759,-2.661 -0.598,-0.331 -1.385,-0.155 -2.052,-0.001 -0.381,0.088 -0.56,0.638 -0.947,0.694 -0.461,0.067 -1.522,0.07 -1.35,-0.363 1.793,-4.509 4.96,-8.401 6.646,-12.951 0.223,-0.602 -0.696,-1.482 -1.331,-1.392 -0.889,0.125 -1.388,1.156 -1.952,1.854 -0.704,0.873 -1.28,1.846 -1.827,2.824 -1.589,2.843 -3.444,5.578 -4.575,8.632 -0.469,1.267 -0.205,2.702 -0.122,4.05 0.029,0.47 0.101,1.026 0.454,1.338 0.272,0.241 0.746,0.144 1.089,0.026 1.34,-0.456 2.543,-1.262 3.882,-1.721 0.343,-0.117 0.775,-0.164 1.088,0.019 0.693,0.407 1.269,1.013 1.756,1.652 0.629,0.826 1.564,1.659 1.558,2.697 -0.008,1.348 -0.882,2.573 -1.594,3.718 -0.415,0.669 -0.989,1.328 -1.722,1.617 -0.479,0.19 -1.093,-0.034 -1.508,-0.34 -1.298,-0.956 -2.11,-2.514 -3.492,-3.344 -0.441,-0.266 -1.064,0.078 -1.508,0.34 -0.534,0.314 -0.97,0.8 -1.308,1.318 -0.963,1.479 -1.971,2.969 -2.567,4.629 -0.178,0.494 0.022,1.128 0.353,1.535"
           id="path13" />
      </g>
      <g
         id="g19"
         transform="matrix(0.71996693,0,0,0.71996693,-31.214041,-3.6439797)">
        <path
           fill="#0062cc"
           d="m 351.964,1030.51 c 0,0 0,0 0,0 0.619,-0.99 2.34,-1.91 1.859,-2.98 -2.516,-5.59 -7.077,-10.03 -10.115,-15.35 -2.357,-4.13 -4.116,-8.57 -6.027,-12.927 -3.6,-8.199 -7.308,-16.36 -10.503,-24.725 -0.149,-0.388 0.763,-0.662 0.651,-1.062 -1.211,-4.323 -2.788,-8.545 -4.504,-12.694 -1.137,-2.748 -2.59,-5.359 -4.038,-7.958 -2.738,-4.912 -6.327,-9.383 -8.515,-14.564 -4.208,-9.968 -6.576,-20.636 -10.588,-30.685 -1.764,-4.417 -4.593,-8.333 -6.694,-12.599 -1.404,-2.852 -2.739,-5.749 -3.816,-8.74 -5.314,-14.757 -9.934,-29.76 -15.347,-44.481 -1.552,-4.219 -3.893,-8.115 -5.531,-12.301 -1.367,-3.493 -2.197,-7.175 -3.471,-10.702 -1.22,-3.376 -2.574,-6.705 -4.007,-9.996 -1.078,-2.478 -2.533,-4.788 -3.522,-7.302 -1.373,-3.488 -2.209,-7.169 -3.548,-10.669 -1.37,-3.579 -3.18,-6.979 -4.574,-10.549 -2.425,-6.21 -4.725,-12.472 -6.879,-18.782 -1.337,-3.918 -2.086,-8.032 -3.591,-11.889 -0.869,-2.226 -1.129,-6.611 -3.493,-6.26 -2.977,0.441 -3.522,4.896 -4.997,7.519 -2.601,4.622 -4.908,9.405 -7.211,14.182 -1.673,3.472 -3.246,6.993 -4.712,10.556 -0.627,1.525 -0.832,3.215 -1.56,4.695 -0.323,0.656 -1.162,0.941 -1.524,1.576 -0.981,1.719 -1.444,3.706 -2.46,5.404 -0.982,1.641 -2.678,2.82 -3.497,4.549 -2.518,5.321 -4.157,11.018 -6.439,16.446 -1.079,2.567 -2.575,4.947 -3.636,7.522 -1.273,3.09 -2.044,6.374 -3.356,9.449 -0.691,1.621 -1.874,2.995 -2.632,4.588 -2.58,5.422 -4.777,11.022 -7.372,16.437 -0.81,1.688 -1.99,3.179 -2.832,4.851 -2.182,4.334 -3.971,8.862 -6.233,13.155 -0.344,0.653 -1.107,0.993 -1.538,1.592 -0.5,0.694 -0.859,1.481 -1.229,2.253 -1.452,3.033 -2.646,6.192 -4.233,9.156 -0.34,0.634 -1.147,0.923 -1.5,1.55 -2.661,4.731 -4.867,9.708 -7.503,14.453 -0.702,1.263 -1.804,2.276 -2.494,3.545 -1.303,2.396 -2.137,5.029 -3.465,7.411 -0.37,0.663 -1.135,1.025 -1.581,1.639 -0.431,0.594 -0.695,1.293 -1.022,1.95 -1.324,2.66 -2.713,5.289 -3.931,7.999 -1.509,3.358 -2.658,6.874 -4.246,10.196 -1.173,2.454 -2.806,4.667 -4.024,7.1 -2.449,4.894 -4.456,10.002 -6.968,14.864 -1.404,2.718 -3.378,5.117 -4.765,7.844 -1.045,2.055 -1.437,4.403 -2.502,6.448 -1.103,2.117 -2.548,4.044 -3.964,5.966 -1.433,1.946 -3.291,3.577 -4.573,5.626 -2.08,3.322 -3.495,7.023 -5.465,10.412 -2.176,3.742 -4.476,7.419 -6.962,10.962 -0.704,1.003 -1.861,1.629 -2.574,2.626 -0.967,1.355 -1.468,3.004 -2.422,4.364 -0.5691,0.82 -1.2901,1.54 -2.1054,2.11 -1.4495,1 -2.9293,2.09 -4.6287,2.57 -0.6899,0.19 -1.323,-0.59 -2.0291,-0.71 -0.6739,-0.12 -1.4201,-0.25 -2.051,0.01 -0.3213,0.13 -0.4732,0.66 -0.34,0.99 0.3715,0.89 1.2765,1.48 1.722,2.35 0.0729,0.14 -0.174,0.32 -0.3314,0.34 -0.998,0.15 -2.0216,0.27 -3.0219,0.14 -0.7116,-0.09 -1.2899,-0.85 -2.0041,-0.78 -0.539,0.05 -1.3895,0.58 -1.208,1.09 0.2984,0.83 1.3685,1.16 2.1551,1.57 0.3143,0.17 0.7037,0.13 1.0591,0.13 1.0078,-0.01 2.0339,0.07 3.0205,-0.14 0.3824,-0.08 0.576,-0.56 0.9443,-0.69 0.3436,-0.12 0.7295,-0.06 1.0929,-0.03 7.9887,0.6 15.9837,1.13 23.9567,1.91 1.328,0.13 2.583,0.83 3.917,0.82 1.061,0 2.012,-0.73 3.067,-0.84 1.654,-0.18 3.328,-0.09 4.989,-0.01 10.306,0.54 20.61,1.11 30.903,1.86 10.763,0.78 21.515,1.71 32.259,2.72 10.532,0.99 21.064,1.99 31.567,3.25 4.103,0.5 8.124,1.59 12.237,2 0.424,0.04 0.658,-0.72 1.083,-0.68 21.348,2.02 42.618,4.8 63.965,6.83 2.651,0.25 5.334,0.2 7.989,-0.01 1.058,-0.08 2.006,-0.86 3.067,-0.85 3.404,0.04 6.768,0.77 10.164,1 9.905,0.67 19.817,1.26 29.735,1.72 m -1.914,-3.02 c 0,0 0,0 0,0 -7.681,0.05 -15.368,0.5 -23.041,0.16 -5.015,-0.23 -9.932,-1.58 -14.944,-1.86 -1.059,-0.06 -2.009,0.77 -3.067,0.85 -2.655,0.21 -5.339,0.27 -7.989,0.01 -29.594,-2.91 -59.123,-6.43 -88.701,-9.49 -11.784,-1.21 -23.602,-2.1 -35.384,-3.34 -1.977,-0.21 -3.895,-0.91 -5.882,-1 -0.405,-0.02 -0.625,0.55 -1.01,0.68 -0.346,0.12 -0.731,0.06 -1.093,0.03 -2.685,-0.27 -5.349,-0.74 -8.04,-0.94 -10.293,-0.75 -20.597,-1.38 -30.904,-1.92 -1.994,-0.1 -4.002,-0.18 -5.989,0.01 -1.056,0.09 -2.006,0.85 -3.067,0.84 -1.499,-0.01 -2.916,-0.72 -4.404,-0.9 -5.893,-0.71 -11.998,-0.19 -17.7203,-1.76 -1.115,-0.31 1.5154,-1.79 2.4623,-2.45 1.208,-0.85 3.213,-0.75 3.931,-2.04 0.438,-0.79 -1.962,-1.39 -1.57,-2.2 1.695,-3.514 4.985,-6.02 7.114,-9.286 1.08,-1.657 1.475,-3.683 2.457,-5.401 0.367,-0.643 1.162,-0.963 1.543,-1.598 1.633,-2.721 2.856,-5.673 4.463,-8.41 1.218,-2.074 2.583,-4.063 4.002,-6.005 0.444,-0.607 1.144,-1.001 1.57,-1.62 1.848,-2.684 3.729,-5.367 5.232,-8.259 4.638,-8.925 8.669,-18.155 13.17,-27.151 1.165,-2.328 2.687,-4.468 3.821,-6.812 3.224,-6.664 5.959,-13.558 9.242,-20.192 0.328,-0.662 1.172,-0.951 1.538,-1.592 2.315,-4.05 4.201,-8.333 6.465,-12.412 3.144,-5.664 6.682,-11.104 9.753,-16.807 1.599,-2.971 2.65,-6.216 4.244,-9.189 0.349,-0.651 1.106,-0.994 1.538,-1.592 0.495,-0.684 0.841,-1.464 1.218,-2.219 4.276,-8.565 8.632,-17.091 12.74,-25.737 1.309,-2.755 2.14,-5.725 3.505,-8.453 0.322,-0.643 1.225,-0.888 1.5,-1.553 1.43,-3.463 2.173,-7.179 3.545,-10.666 0.989,-2.514 2.477,-4.81 3.522,-7.302 1.583,-3.774 2.734,-7.723 4.356,-11.48 1.179,-2.731 2.535,-5.391 4.038,-7.958 0.383,-0.655 1.197,-0.985 1.581,-1.639 1.564,-2.663 2.912,-5.45 4.223,-8.245 3.088,-6.585 5.874,-13.309 8.972,-19.889 0.514,-1.092 0.7,-2.765 1.857,-3.107 0.921,-0.273 1.334,1.407 2.143,1.924 0.133,0.085 0.341,-0.203 0.31,-0.357 -0.141,-0.704 -0.706,-1.293 -0.783,-2.006 -0.144,-1.334 -0.172,-2.717 0.134,-4.023 0.126,-0.541 0.832,-0.764 1.101,-1.249 0.608,-1.097 0.891,-2.355 1.504,-3.45 0.153,-0.273 0.501,-0.765 0.747,-0.571 0.829,0.657 1.335,1.66 1.817,2.602 0.528,1.029 0.826,2.163 1.189,3.262 3.758,11.364 7.249,22.817 11.174,34.125 0.33,0.951 1.205,1.643 1.567,2.583 1.35,3.496 2.176,7.18 3.548,10.668 0.992,2.523 2.526,4.81 3.53,7.33 2.961,7.434 5.387,15.075 8.355,22.507 1.033,2.588 2.66,4.917 3.638,7.526 4.587,12.233 8.844,24.588 13.042,36.96 1.28,3.77 2.015,7.717 3.389,11.454 0.597,1.624 1.771,2.98 2.496,4.551 1.279,2.77 2.193,5.701 3.507,8.455 1.675,3.51 4.024,6.697 5.448,10.316 3.603,9.156 5.679,18.888 9.596,27.914 3.775,8.697 9.258,16.56 13.405,25.086 1.541,3.167 2.706,6.524 3.627,9.923 0.109,0.401 -0.75,0.659 -0.651,1.062 0.59,2.397 1.672,4.648 2.618,6.928 2.889,6.963 5.853,13.895 8.885,20.794 1.62,3.69 3.256,7.38 5.069,10.97 0.249,0.5 0.934,0.72 1.092,1.25 0.133,0.45 0.134,1.23 -0.313,1.36 -0.676,0.2 -1.301,-0.6 -2.002,-0.67 -0.454,-0.05 -1.388,-0.12 -1.327,0.33 0.105,0.8 0.987,1.29 1.61,1.8 0.76,0.61 1.842,0.82 2.498,1.54 1.14,1.27 1.598,3.06 2.766,4.3 1.387,1.48 3.393,2.27 4.79,3.74 m -22.046,-15.33 c 0,0 0,0 0,0 -0.104,-0.51 -0.039,-1.08 -0.313,-1.52 -0.965,-1.54 -2.036,-3.05 -3.339,-4.33 -1.39,-1.36 -2.908,-2.66 -4.666,-3.49 -0.391,-0.18 -0.864,0.42 -1,0.83 -0.135,0.41 0.005,0.95 0.311,1.25 0.746,0.74 1.871,1 2.661,1.7 1.961,1.72 3.59,3.8 5.552,5.52 m -232.2344,-3.03 c 0,0 0,0 0,0 -0.4367,0.12 -0.8573,0.35 -1.31,0.36 -0.1452,0 -0.4045,-0.25 -0.2817,-0.33 0.387,-0.24 0.8749,-0.32 1.3326,-0.33 m 22.2645,-6.49 c 0,0 0,0 0,0 2.15,-0.82 4.357,-1.5 6.451,-2.452 0.279,-0.127 0.815,-0.577 0.553,-0.736 -0.68,-0.411 -1.579,-0.518 -2.358,-0.357 -1.305,0.268 -2.541,0.882 -3.666,1.596 -0.675,0.429 -1.268,1.049 -1.626,1.759 m 199.333,-0.66 c 0,0 0,0 0,0 0.129,-0.32 0.623,-0.71 0.386,-0.965 -2.087,-2.236 -4.516,-4.135 -6.917,-6.03 -1.71,-1.351 -3.443,-2.725 -5.396,-3.691 -0.418,-0.207 -1.663,0 -1.356,0.351 2.24,2.557 5.011,4.599 7.611,6.79 1.496,1.261 3.009,2.523 4.669,3.565 m -177.714,-7.127 c 0,0 0,0 0,0 1.649,-0.809 3.613,-1.163 4.946,-2.426 0.397,-0.376 -0.694,-0.891 -1.182,-1.139 -0.322,-0.163 -0.754,-0.161 -1.084,-0.014 -1.706,0.757 -3.153,2.068 -4.917,2.679 -0.378,0.131 -0.644,-0.735 -1.028,-0.622 -0.59,0.172 -0.975,0.784 -1.301,1.304 -0.076,0.122 0.133,0.326 0.277,0.333 m 165.345,-7.295 c 0,0 0,0 0,0 -0.105,-0.507 0.007,-1.115 -0.316,-1.521 -1.264,-1.591 -2.774,-2.982 -4.315,-4.307 -0.797,-0.686 -1.838,-1.038 -2.662,-1.692 -1.081,-0.857 -1.792,-2.209 -3.028,-2.822 -0.387,-0.192 -0.864,0.415 -1,0.825 -0.135,0.41 -0.018,0.977 0.311,1.256 1.972,1.678 4.409,2.752 6.379,4.433 1.406,1.2 2.255,2.971 3.679,4.149 m -141.368,0.008 c 0,0 0,0 0,0 0.896,-0.529 1.846,-0.977 2.688,-1.587 0.5,-0.362 0.98,-0.788 1.31,-1.31 0.144,-0.227 0.267,-0.683 0.027,-0.805 -0.399,-0.201 -0.931,-0.05 -1.333,0.145 -2.04,0.991 -4.54,1.563 -5.909,3.371 m 22.181,-7.707 c 0,0 0,0 0,0 1.588,-0.578 3.264,-0.953 4.763,-1.732 0.999,-0.52 1.856,-1.303 2.635,-2.116 0.144,-0.15 0.123,-0.464 -0.01,-0.624 -0.146,-0.174 -0.445,-0.253 -0.659,-0.177 -2.851,1.02 -5.668,2.146 -8.415,3.422 -0.287,0.134 -0.492,0.45 -0.578,0.756 -0.038,0.137 0.135,0.3 0.275,0.329 m 107.349,-5.306 c 0,0 0,0 0,0 -0.619,-0.878 -1.056,-1.918 -1.856,-2.635 -1.847,-1.653 -3.902,-3.071 -5.996,-4.397 -0.266,-0.169 -0.649,-0.105 -0.947,10e-4 -0.233,0.084 -0.447,0.291 -0.526,0.526 -0.103,0.309 -0.207,0.748 0.025,0.977 1.282,1.266 2.781,2.304 4.291,3.286 1.485,0.965 3.052,1.813 4.668,2.537 m -79.483,-5.781 c 0,0 0,0 0,0 0.572,-0.576 1.521,-0.94 1.716,-1.728 0.1,-0.405 -0.817,-0.403 -1.217,-0.287 -1.395,0.405 -2.555,1.472 -3.971,1.793 -0.391,0.088 -0.605,-0.607 -1.002,-0.666 -0.46,-0.068 -1.132,-0.091 -1.362,0.314 -0.253,0.448 0.074,1.063 0.333,1.509 0.225,0.387 0.597,0.928 1.038,0.853 m 73.285,-5.29 c 0,0 0,0 0,0 -0.105,-0.507 0.029,-1.134 -0.316,-1.521 -1.376,-1.543 -3.264,-2.565 -4.676,-4.076 -1.06,-1.135 -1.665,-2.637 -2.687,-3.805 -0.141,-0.161 -0.516,-0.171 -0.64,0.003 -0.275,0.387 -0.518,0.941 -0.344,1.383 0.396,1.007 1.161,1.845 1.916,2.619 1.259,1.292 2.807,2.276 4.091,3.543 0.655,0.647 0.949,1.647 1.704,2.175 m -56.061,-0.174 c 0,0 0,0 0,0 2.716,-0.913 5.611,-1.406 8.148,-2.738 0.438,-0.229 0.069,-1.021 -0.122,-1.476 -0.078,-0.188 -0.381,-0.245 -0.579,-0.196 -1.603,0.393 -3.171,0.927 -4.72,1.496 -1.838,0.675 -3.76,1.218 -5.434,2.232 -0.261,0.158 0.08,0.759 0.375,0.833 m 25.023,-8.97 c 0,0 0,0 0,0 2.47,-0.969 4.994,-1.812 7.411,-2.908 0.134,-0.061 0.09,-0.358 -0.033,-0.44 -0.407,-0.272 -0.894,-0.451 -1.381,-0.506 -0.682,-0.077 -1.393,-0.066 -2.055,0.117 -1.2,0.333 -2.36,0.827 -3.459,1.411 -1.015,0.54 -2.615,0.817 -2.848,1.942 m 15.825,-7.964 c 0,0 0,0 0,0 0.295,-0.33 0.788,-0.559 0.884,-0.991 0.101,-0.456 0.089,-1.469 -0.364,-1.355 -1.579,0.4 -3.255,1.178 -4.195,2.508 -0.429,0.608 1.469,0.332 2.212,0.299 m -2.514,-10.445 c 0,0 0,0 0,0 -0.045,-0.687 0.234,-1.481 -0.136,-2.062 -0.252,-0.396 -0.965,-0.542 -1.375,-0.312 -0.411,0.231 -0.41,0.87 -0.454,1.339 -0.063,0.673 -0.227,1.456 0.141,2.024 0.254,0.393 0.959,0.53 1.37,0.306 m -0.736,-5.312 c 0,0 0,0 0,0 -0.254,-0.674 -0.763,-1.302 -0.761,-2.022 0.001,-0.715 0.816,-1.29 0.767,-2.003 -0.022,-0.332 -0.661,-0.557 -0.929,-0.36 -0.774,0.568 -1.292,1.451 -1.725,2.308 -0.163,0.323 -0.161,0.768 0.014,1.084 0.301,0.541 0.735,1.094 1.314,1.313 m 1.353,-9.297 c 0,0 0,0 0,0 0.012,-1.033 0.345,-2.113 0.036,-3.099 -0.287,-0.918 -1.042,-1.638 -1.73,-2.31 -0.15,-0.146 -0.509,-0.165 -0.628,0.007 -0.279,0.4 -0.48,0.943 -0.363,1.416 0.319,1.297 0.962,2.5 1.614,3.666 0.155,0.277 0.454,0.486 0.758,0.577 m -1.674,-7.263 c 0,0 0,0 0,0 0.338,-0.671 0.899,-1.271 1.013,-2.013 0.12,-0.775 0.321,-1.915 -0.346,-2.326 -0.528,-0.326 -1.172,0.681 -1.356,1.274 -0.302,0.971 -0.209,2.058 0.014,3.05 m -0.334,-8.974 c 0,0 0,0 0,0 0.051,-0.68 0.219,-1.362 0.153,-2.041 -0.045,-0.462 -0.012,-1.301 -0.477,-1.309 -0.62,-0.012 -1.021,0.752 -1.356,1.274 -0.186,0.29 -0.164,0.685 -0.118,1.026 0.064,0.464 0.035,1.098 0.44,1.335 m -1.162,-9.121 c 0,0 0,0 0,0 0.517,-0.72 1.322,-1.305 1.551,-2.162 0.209,-0.776 0.178,-1.765 -0.331,-2.387 -0.297,-0.362 -1.25,-0.145 -1.371,0.307 m 0.84,-11.929 c 0,0 0,0 0,0 -0.093,-0.749 0.394,-2.588 -0.279,-2.248 -1.05,0.531 -1.492,1.997 -1.547,3.172 -0.03,0.628 0.772,1.617 1.333,1.333 m 0.324,-12.25 c 0,0 0,0 0,0 0.005,-1.026 0.395,-2.126 0.013,-3.078 -0.174,-0.435 -0.963,-0.537 -1.371,-0.307 -0.41,0.232 -0.41,0.87 -0.454,1.339 -0.063,0.673 -0.308,1.518 0.141,2.024 m -1.925,-15.833 c 0,0 0,0 0,0 0.543,-1.378 1.294,-2.691 1.629,-4.134 0.106,-0.457 0.03,-1.627 -0.355,-1.36 -1.099,0.762 -1.844,2.011 -2.363,3.244 -0.204,0.483 0.123,1.061 0.351,1.533 m 0.317,-12.468 c 0,0 0,0 0,0 -0.52,-1.07 -0.617,-2.485 -1.561,-3.209 -0.424,-0.325 -0.858,0.692 -1.093,1.171 -0.155,0.316 -0.171,0.748 0,1.055 0.3,0.542 0.733,1.099 1.314,1.314 m -0.305,-13.35 c 0,0 0,0 0,0 0.268,0.004 0.571,0.147 0.803,0.014 0.378,-0.218 0.77,-0.553 0.872,-0.977 0.108,-0.453 0.081,-1.115 -0.313,-1.362 -0.397,-0.249 -1.134,-0.098 -1.371,0.306 m 1.341,-13.629 c 0,0 0,0 0,0 0.434,-0.449 1.626,-0.815 1.301,-1.349 -0.408,-0.669 -1.598,-0.623 -2.328,-0.336 -0.435,0.171 -0.55,0.971 -0.306,1.37 m 1.658,-5.983 c 0,0 0,0 0,0 0.108,-1.357 0.053,-2.737 0.324,-4.071 0.078,-0.384 0.638,-0.559 0.694,-0.947 0.069,-0.474 0.036,-1.67 -0.355,-1.393 -1.105,0.781 -1.814,2.066 -2.352,3.308 -0.276,0.637 -0.249,1.441 0.014,2.084 0.235,0.576 0.829,0.955 1.361,1.278 m 0.327,-14.254 c 0,0 0,0 0,0 -0.113,-0.803 0.47,-2.384 -0.34,-2.407 -1.096,-0.032 -2.031,1.272 -2.319,2.329 -0.164,0.603 0.698,1.309 1.322,1.327 m -1.191,-10.085 c 0,0 0,0 0,0 0.515,-0.72 1.258,-1.323 1.546,-2.161 0.154,-0.449 0.075,-1.132 -0.326,-1.387 -0.395,-0.252 -1.219,-0.137 -1.371,0.306 m 2.659,-10.96 c 0,0 0,0 0,0 -0.624,-2.143 -1.119,-4.328 -1.872,-6.429 -0.047,-0.132 -0.342,-0.081 -0.419,0.037 -0.269,0.411 -0.476,0.893 -0.51,1.383 -0.094,1.339 -0.22,2.729 0.133,4.023 0.163,0.6 0.739,1.1 1.323,1.315 M 648.457,504 c 0,0 0,0 0,0 5.012,-0.005 10.033,0.277 15.036,-0.014 17.007,-0.99 33.959,-2.803 50.964,-3.828 0.41,-0.025 0.612,0.627 1.017,0.695 1.324,0.22 2.683,0.146 4.026,0.146 0.677,0 1.369,0.015 2.026,-0.147 0.695,-0.171 1.267,-0.752 1.977,-0.837 1.653,-0.198 3.341,-0.198 4.994,0 0.71,0.085 1.275,0.699 1.977,0.837 0.991,0.195 2.021,0.249 3.026,0.147 1.378,-0.14 2.679,-0.907 4.063,-0.868 8.657,0.248 17.263,1.714 25.923,1.725 1.44,0.002 2.568,-1.398 3.98,-1.685 0.394,-0.08 0.622,0.544 1.004,0.671 0.346,0.115 0.73,0.054 1.093,0.026 7.294,-0.543 14.566,-1.424 21.874,-1.736 0.74,-0.032 1.365,0.73 2.106,0.711 11.981,-0.307 23.934,-1.365 35.914,-1.686 0.41,-0.011 0.614,0.613 1.017,0.696 0.988,0.202 2.024,0.273 3.023,0.132 0.708,-0.1 1.282,-0.666 1.977,-0.837 0.657,-0.162 1.349,-0.145 2.026,-0.147 11.665,-0.042 23.334,-0.254 34.997,0.014 0.715,0.017 1.282,0.666 1.977,0.837 0.657,0.162 1.349,0.132 2.026,0.147 1.332,0.029 2.671,0.115 3.996,-0.015 0.491,-0.048 1.84,-0.319 1.387,-0.512 -2.683,-1.138 -5.48,-2.296 -8.39,-2.458 -11.979,-0.667 -23.995,-0.055 -35.993,-0.013 -0.677,0.002 -1.369,-0.015 -2.026,0.147 -0.695,0.171 -1.269,0.737 -1.977,0.837 -0.999,0.141 -2.035,0.07 -3.023,-0.132 -0.403,-0.083 -0.607,-0.706 -1.017,-0.697 -14.78,0.329 -29.55,1.036 -44.319,1.705 -5.197,0.235 -10.373,0.916 -15.575,1.007 -0.736,0.013 -1.37,-0.815 -2.097,-0.697 -1.422,0.231 -2.54,1.692 -3.98,1.685 -8.685,-0.041 -17.311,-1.515 -25.989,-1.826 -0.712,-0.026 -1.279,0.654 -1.971,0.822 -0.658,0.16 -1.349,0.147 -2.026,0.147 -1.01,0 -2.035,0.048 -3.026,-0.147 -0.702,-0.138 -1.267,-0.752 -1.977,-0.837 -1.653,-0.198 -3.341,-0.198 -4.994,0 -0.71,0.085 -1.282,0.666 -1.977,0.837 -0.657,0.162 -1.349,0.147 -2.026,0.147 -1.343,0 -2.702,0.074 -4.026,-0.146 -0.405,-0.068 -0.607,-0.718 -1.017,-0.695 -6.34,0.36 -12.632,1.34 -18.964,1.828 -1.004,0.078 -2.032,0.069 -3.019,-0.133 -0.402,-0.083 -0.607,-0.723 -1.016,-0.693 -9.344,0.688 -18.612,2.264 -27.965,2.826 -6.318,0.38 -12.666,0.274 -18.99,-10e-4 -1.049,-0.046 -1.953,-0.926 -3.003,-0.954 -0.712,-0.019 -1.268,0.725 -1.974,0.821 -1.658,0.227 -3.348,0.22 -5.019,0.134 -9.072,-0.467 -19.098,2.326 -27.194,-1.794 -3.21,-1.634 4.101,-5.929 5.974,-9.006 1.774,-2.916 3.41,-5.918 4.96,-8.959 0.851,-1.669 1.39,-3.486 2.236,-5.158 0.845,-1.67 2.038,-3.153 2.829,-4.848 1.282,-2.746 2.074,-5.705 3.376,-8.442 2.348,-4.937 5.341,-9.558 7.56,-14.555 2.066,-4.65 3.715,-9.481 5.269,-14.326 2.244,-6.992 3.926,-14.155 6.117,-21.163 1.908,-6.101 3.859,-12.198 6.179,-18.154 0.651,-1.67 1.93,-3.032 2.703,-4.649 2.544,-5.326 4.727,-10.818 7.238,-16.16 0.735,-1.565 1.836,-2.949 2.494,-4.547 4.013,-9.746 7.353,-19.765 11.505,-29.452 0.861,-2.008 2.463,-3.62 3.494,-5.546 0.884,-1.652 1.391,-3.486 2.236,-5.158 0.849,-1.679 2.072,-3.16 2.838,-4.878 2.996,-6.725 5.41,-13.7 8.43,-20.415 1.627,-3.616 3.847,-6.943 5.496,-10.549 3.688,-8.067 6.755,-16.412 10.504,-24.451 0.788,-1.689 1.287,-5.186 3.078,-4.67 3.434,0.989 5.244,4.897 7.456,7.704 1.774,2.251 2.586,5.175 4.426,7.374 3.276,3.914 7.078,7.363 10.817,10.839 0.77,0.716 1.863,1.008 2.662,1.692 1.466,1.256 2.862,2.61 4.095,4.095 1.951,2.35 3.419,5.082 5.43,7.38 2.668,3.049 5.844,5.623 8.57,8.62 0.707,0.778 0.985,1.884 1.692,2.662 2.639,2.903 5.694,5.412 8.308,8.338 1.762,1.972 3.048,4.334 4.789,6.324 0.616,0.704 1.63,0.985 2.233,1.7 1.963,2.326 3.428,5.045 5.408,7.356 2.023,2.361 4.543,4.263 6.57,6.62 2.173,2.527 4.093,5.266 6,8 1.905,2.73 3.433,5.717 5.43,8.38 1.017,1.356 2.553,2.264 3.57,3.62 1.997,2.663 3.472,5.688 5.43,8.38 0.72,0.989 1.819,1.654 2.57,2.62 1.59,2.044 2.85,4.329 4.43,6.38 1.054,1.369 2.466,2.448 3.457,3.863 1.353,1.933 2.142,4.23 3.54,6.131 1.987,2.704 4.477,5.005 6.573,7.626 0.578,0.723 0.837,1.669 1.43,2.38 1.085,1.302 2.608,2.225 3.57,3.62 5.722,8.296 10.84,16.995 16.43,25.38 0.418,0.628 1.155,0.999 1.574,1.626 0.923,1.385 1.499,2.983 2.422,4.368 0.42,0.629 1.194,0.98 1.578,1.632 2.962,5.036 5.452,10.34 8.424,15.37 1.366,2.311 3.144,4.356 4.574,6.628 1.431,2.275 2.69,4.654 4,7 2.033,3.641 4.111,7.258 6.028,10.96 0.574,1.107 0.801,2.381 1.438,3.453 1.364,2.294 3.248,4.259 4.539,6.595 1.788,3.236 2.831,6.852 4.666,10.061 0.158,0.276 0.772,-0.061 0.883,-0.359 0.242,-0.651 0.27,-1.433 0.024,-2.083 -1.219,-3.233 -2.718,-6.365 -4.359,-9.406 -0.755,-1.398 -2.015,-2.476 -2.799,-3.858 -0.977,-1.721 -1.499,-3.674 -2.46,-5.404 -0.711,-1.28 -1.801,-2.32 -2.534,-3.587 -2.924,-5.059 -5.454,-10.341 -8.426,-15.372 -1.367,-2.313 -3.261,-4.294 -4.579,-6.636 -1.692,-3.008 -2.768,-6.333 -4.42,-9.362 -0.362,-0.664 -1.157,-1.003 -1.577,-1.632 -2.256,-3.385 -4.17,-6.99 -6.426,-10.374 -0.417,-0.626 -1.153,-0.994 -1.57,-1.62 -5.59,-8.385 -10.708,-17.084 -16.43,-25.38 -0.962,-1.395 -2.485,-2.318 -3.57,-3.62 -0.593,-0.711 -0.828,-1.677 -1.43,-2.38 -1.41,-1.645 -3.27,-2.887 -4.57,-4.62 -1.72,-2.293 -2.836,-4.988 -4.426,-7.374 -0.419,-0.627 -1.136,-1.012 -1.574,-1.626 -1.236,-1.731 -2.133,-3.694 -3.43,-5.38 -2.045,-2.658 -4.525,-4.962 -6.57,-7.62 -1.297,-1.686 -2.154,-3.679 -3.43,-5.38 -1.73,-2.307 -3.865,-4.294 -5.57,-6.62 -1.968,-2.684 -3.525,-5.65 -5.43,-8.38 -1.907,-2.734 -3.768,-5.524 -6,-8 -2.45,-2.719 -5.544,-4.807 -7.993,-7.526 -0.209,-0.232 0.455,-0.479 0.506,-0.787 0.03,-0.183 -0.179,-0.329 -0.298,-0.472 -1.173,-1.402 -2.286,-2.862 -3.574,-4.159 -1.313,-1.321 -3.009,-2.252 -4.211,-3.676 -1.371,-1.625 -2.038,-3.772 -3.43,-5.38 -2.876,-3.323 -6.338,-6.098 -9.308,-9.338 -0.711,-0.775 -0.988,-1.881 -1.692,-2.662 -2.396,-2.66 -5.174,-4.96 -7.57,-7.62 -0.704,-0.781 -1.019,-1.855 -1.692,-2.662 -1.004,-1.205 -2.282,-2.159 -3.314,-3.34 -1.21,-1.387 -2.057,-3.091 -3.398,-4.352 -1.967,-1.851 -4.415,-3.129 -6.445,-4.91 -0.703,-0.617 -1.005,-1.607 -1.7,-2.234 -0.775,-0.699 -1.854,-0.995 -2.641,-1.681 -0.324,-0.284 -0.295,-0.84 -0.599,-1.145 -0.661,-0.664 -1.703,-0.933 -2.236,-1.703 -2.047,-2.962 -3.313,-6.423 -5.405,-9.353 -1.259,-1.763 -3.161,-2.975 -4.57,-4.62 -0.593,-0.693 -0.68,-1.791 -1.401,-2.35 -1.088,-0.844 -2.434,-1.37 -3.779,-1.668 -0.34,-0.076 -0.639,0.348 -0.821,0.645 -1.782,2.915 -3.581,5.835 -5.031,8.928 -2.687,5.732 -4.83,11.706 -7.364,17.508 -1.612,3.693 -3.29,7.36 -5.072,10.974 -0.766,1.553 -1.838,2.945 -2.564,4.518 -2.094,4.54 -4.03,9.155 -5.886,13.798 -0.639,1.599 -0.854,3.359 -1.595,4.914 -2.638,5.53 -5.925,10.738 -8.52,16.289 -2.879,6.159 -5.41,12.479 -7.887,18.811 -0.974,2.491 -1.512,5.137 -2.458,7.638 -0.906,2.395 -1.987,4.722 -3.09,7.032 -3.45,7.228 -7.346,14.247 -10.566,21.58 -1.99,4.53 -3.572,9.236 -5.042,13.96 -2.587,8.314 -4.514,16.825 -7.123,25.133 -1.523,4.852 -3.337,9.614 -5.265,14.32 -0.423,1.034 -1.288,1.839 -1.767,2.848 -3.439,7.247 -6.545,14.649 -9.976,21.9 -1.634,3.454 -3.339,6.881 -5.216,10.21 -2.865,5.081 -5.846,10.101 -9.003,15.006 -0.565,0.876 -1.745,1.32 -2.131,2.289 -0.222,0.556 -0.059,1.646 0.536,1.715 9.89,1.145 19.871,1.27 29.813,1.798 1.328,0.071 2.669,0.155 3.99,-10e-4 1.039,-0.123 1.983,-0.828 3.03,-0.828 0.714,0 1.268,0.742 1.976,0.828 m -315.548,-4.467 c 0,0 0,0 0,0 0.632,-0.664 1.609,-1.121 1.896,-1.992 0.34,-1.028 0.721,-2.625 -0.167,-3.243 -0.745,-0.518 -1.304,1.588 -2.212,1.588 -1.033,0 -1.873,-0.92 -2.662,-1.586 -1.642,-1.387 -2.825,-3.302 -4.586,-4.535 -1.62,-1.134 -3.756,-1.358 -5.401,-2.457 -1.413,-0.944 -2.327,-2.49 -3.633,-3.578 -0.711,-0.592 -1.683,-0.821 -2.38,-1.43 -1.81,-1.579 -3.499,-3.3 -5.095,-5.095 -1.014,-1.141 -1.631,-2.612 -2.713,-3.688 -1.437,-1.428 -3.046,-2.706 -4.779,-3.755 -5.012,-3.033 -10.359,-5.485 -15.407,-8.459 -0.652,-0.384 -0.991,-1.175 -1.632,-1.576 -2.044,-1.278 -4.303,-2.185 -6.37,-3.425 -2.062,-1.238 -4.062,-2.583 -6.004,-4.002 -0.609,-0.445 -0.979,-1.186 -1.626,-1.573 -4.021,-2.411 -8.568,-3.973 -12.318,-6.786 -2.997,-2.248 -4.97,-5.619 -7.676,-8.211 -0.759,-0.727 -1.841,-1.035 -2.662,-1.692 -0.857,-0.685 -1.427,-1.708 -2.344,-2.311 -2.013,-1.325 -4.324,-2.146 -6.368,-3.424 -0.642,-0.401 -1.002,-1.158 -1.632,-1.577 -1.378,-0.917 -3.113,-1.298 -4.346,-2.401 -1.879,-1.679 -3.05,-4.032 -4.836,-5.808 -1.447,-1.439 -3.146,-2.608 -4.812,-3.787 -2.929,-2.073 -5.867,-4.147 -8.963,-5.962 -1.708,-1.001 -3.667,-1.514 -5.405,-2.461 -3.056,-1.665 -6.163,-3.289 -8.956,-5.366 -1.194,-0.888 -1.813,-2.373 -2.866,-3.426 -0.625,-0.625 -1.542,-0.917 -2.134,-1.574 -1.118,-1.241 -1.804,-2.834 -2.94,-4.06 -1.109,-1.197 -2.394,-2.235 -3.742,-3.155 -2.369,-1.615 -5.069,-2.722 -7.374,-4.426 -0.822,-0.608 -1.159,-1.698 -1.884,-2.419 -2.158,-2.145 -4.334,-4.295 -6.742,-6.155 -1.318,-1.017 -3.021,-1.443 -4.368,-2.422 -2.334,-1.698 -4.298,-3.867 -6.626,-5.574 -2.684,-1.968 -5.629,-3.557 -8.38,-5.43 -1.378,-0.938 -2.737,-1.912 -4,-3 -1.271,-1.095 -2.208,-2.575 -3.585,-3.535 -2.075,-1.445 -4.346,-2.617 -6.671,-3.612 -0.629,-0.27 -1.369,-0.188 -2.05,-0.121 -0.471,0.046 -1.067,0.07 -1.344,0.453 -0.301,0.413 -0.524,1.25 -0.096,1.53 2.505,1.64 5.655,2.113 8.161,3.75 2.794,1.825 4.939,4.501 7.585,6.535 1.687,1.297 3.666,2.174 5.382,3.432 3.292,2.414 6.303,5.199 9.624,7.572 1.355,0.967 3.054,1.4 4.368,2.422 1.711,1.332 2.979,3.163 4.626,4.574 0.695,0.595 1.709,0.761 2.356,1.407 0.731,0.731 0.847,1.988 1.668,2.616 2.898,2.214 6.494,3.436 9.3,5.766 2.004,1.665 3.143,4.172 4.94,6.06 1.772,1.861 3.669,3.624 5.736,5.151 2.53,1.87 5.278,3.432 8.004,5.002 2.736,1.575 5.665,2.802 8.372,4.426 3.093,1.856 6.281,3.636 9.004,6.002 2.54,2.206 4.158,5.332 6.648,7.595 1.224,1.113 2.968,1.484 4.346,2.401 0.63,0.419 0.983,1.188 1.632,1.577 2.705,1.624 5.7,2.741 8.367,4.425 0.473,0.299 0.481,1.041 0.891,1.421 2.256,2.089 4.83,3.822 7.06,5.94 1.693,1.609 2.775,3.865 4.682,5.214 3.199,2.263 7.025,3.488 10.409,5.462 0.637,0.372 0.963,1.153 1.591,1.539 3.709,2.278 7.661,4.142 11.368,6.423 0.644,0.396 1.009,1.148 1.632,1.576 2.003,1.376 4.093,2.626 6.214,3.812 1.592,0.891 3.355,1.464 4.913,2.412 3.171,1.929 6.252,4.012 9.247,6.203 0.797,0.583 1.484,1.319 2.095,2.095 0.573,0.727 0.821,1.683 1.43,2.38 1.579,1.81 3.262,3.543 5.095,5.095 2.53,2.143 5.187,4.147 7.962,5.962 1.051,0.687 2.473,0.719 3.453,1.503 2.414,1.933 4.255,4.501 6.585,6.535 0.773,0.675 1.71,1.165 2.666,1.54 m 335.99,-9.845 c 0,0 0,0 0,0 0.447,-0.098 0.939,-0.074 1.34,-0.294 1.86,-1.022 3.654,-2.171 5.384,-3.401 2.93,-2.084 5.592,-4.536 8.582,-6.532 1.044,-0.697 2.473,-0.719 3.453,-1.503 2.414,-1.933 4.084,-4.717 6.585,-6.535 4.864,-3.536 10.331,-6.163 15.38,-9.43 0.631,-0.409 1.008,-1.133 1.62,-1.57 1.731,-1.236 3.702,-2.124 5.38,-3.43 1.004,-0.781 1.888,-1.737 2.607,-2.786 0.112,-0.164 -0.371,-0.262 -0.561,-0.203 -1.195,0.372 -2.433,0.74 -3.461,1.455 -2.342,1.627 -4.178,3.921 -6.552,5.502 -4.634,3.087 -9.632,5.592 -14.407,8.458 -0.679,0.408 -1.386,0.805 -1.949,1.363 -0.716,0.709 -1.14,1.675 -1.843,2.397 -0.937,0.963 -1.95,1.864 -3.054,2.63 -1.072,0.743 -2.372,1.118 -3.437,1.871 -4.177,2.956 -7.8,6.73 -12.26,9.239 -2.074,1.167 -4.797,0.591 -6.964,1.577 -0.478,0.218 0.659,0.919 1.165,1.063 m 195.323,-1.159 c 0,0 0,0 0,0 2.798,-1.804 5.651,-3.522 8.392,-5.41 0.274,-0.188 0.888,-0.607 0.61,-0.789 -0.663,-0.435 -1.633,-0.688 -2.353,-0.355 -2.53,1.172 -4.463,3.392 -6.945,4.661 -0.347,0.177 -0.621,-0.521 -1.002,-0.598 -0.183,-0.037 -0.337,0.171 -0.473,0.299 -0.315,0.299 -0.698,0.573 -0.868,0.972 -0.137,0.325 -0.228,0.794 0.007,1.057 0.312,0.349 0.866,0.411 1.333,0.44 m -21.043,-1.145 c 0,0 0,0 0,0 0.689,0.01 1.447,0.329 2.067,0.029 0.94,-0.455 1.425,-1.551 2.288,-2.138 2.371,-1.611 4.988,-2.836 7.374,-4.426 0.629,-0.42 0.994,-1.171 1.632,-1.577 3.046,-1.939 6.362,-3.437 9.374,-5.427 2.66,-1.757 5.529,-3.377 7.609,-5.792 0.511,-0.594 -1.635,-0.716 -2.325,-0.344 -3.675,1.979 -6.793,4.858 -10.289,7.138 -1.395,0.91 -2.983,1.5 -4.369,2.424 -0.629,0.42 -0.994,1.171 -1.632,1.578 -3.044,1.937 -6.359,3.43 -9.368,5.422 -0.909,0.603 -1.656,1.444 -2.315,2.313 m -28.705,-0.329 c 0,0 0,0 0,0 3.465,-2.137 7.116,-4 10.396,-6.412 3.08,-2.264 5.639,-5.172 8.618,-7.568 2.221,-1.786 4.511,-3.509 6.963,-4.962 1.622,-0.962 3.507,-1.401 5.195,-2.244 1.652,-0.826 3.115,-2.016 4.808,-2.757 3.065,-1.343 6.394,-2.044 9.419,-3.477 0.73,-0.345 1.278,-1.055 1.657,-1.768 0.099,-0.188 -0.391,-0.278 -0.597,-0.227 -1.534,0.38 -3.053,0.855 -4.501,1.488 -0.495,0.217 -0.721,0.938 -1.253,1.031 -0.398,0.07 -0.639,-0.703 -1.035,-0.628 -1.308,0.245 -2.533,0.863 -3.692,1.515 -1.271,0.717 -2.271,1.859 -3.549,2.564 -2.404,1.325 -5.054,2.168 -7.453,3.503 -2.085,1.161 -4.132,2.43 -5.962,3.962 -2.384,1.996 -4.123,4.718 -6.62,6.57 -4.717,3.5 -10.227,5.848 -14.906,9.4 m -94.14,-1.234 c 0,0 0,0 0,0 0.459,0.132 0.952,0.613 1.377,0.394 3.053,-1.57 5.955,-3.458 8.669,-5.56 6.399,-4.955 12.253,-10.586 18.626,-15.574 1.311,-1.026 3.021,-1.443 4.368,-2.422 2.334,-1.698 4.272,-3.904 6.626,-5.574 7.992,-5.671 16.422,-10.71 24.38,-16.43 2.723,-1.957 4.983,-4.498 7.62,-6.57 2.036,-1.6 4.358,-2.813 6.38,-4.43 1.323,-1.059 2.318,-2.485 3.62,-3.57 0.711,-0.593 1.683,-0.821 2.38,-1.43 1.81,-1.579 3.505,-3.295 5.095,-5.095 0.865,-0.979 1.289,-2.322 2.244,-3.214 1.945,-1.819 4.507,-2.921 6.362,-4.832 0.387,-0.4 0.204,-1.177 -0.055,-1.67 -0.126,-0.238 -0.578,-0.114 -0.809,0.025 -2.144,1.294 -4.337,2.562 -6.217,4.216 -1.075,0.946 -1.567,2.411 -2.525,3.475 -1.923,2.135 -3.948,4.186 -6.095,6.095 -0.786,0.699 -1.854,1.019 -2.662,1.692 -1.204,1.003 -2.113,2.332 -3.338,3.308 -2.025,1.613 -4.344,2.83 -6.38,4.43 -2.637,2.072 -4.897,4.613 -7.62,6.57 -7.958,5.72 -16.366,10.79 -24.38,16.43 -1,0.704 -1.631,1.85 -2.62,2.57 -2.692,1.958 -5.717,3.433 -8.38,5.43 -1.356,1.017 -2.297,2.511 -3.62,3.57 -2.022,1.617 -4.391,2.772 -6.38,4.43 -2.026,1.689 -3.637,3.831 -5.62,5.57 -0.791,0.693 -1.841,1.036 -2.662,1.692 -0.843,0.673 -1.401,1.681 -2.303,2.273 -1.05,0.688 -2.373,0.863 -3.453,1.503 -0.969,0.575 -1.854,1.305 -2.641,2.112 m -69.362,-2.11 c 0,0 0,0 0,0 2.472,-1.156 5.173,-1.913 7.415,-3.467 2.17,-1.504 3.655,-3.817 5.626,-5.573 1.244,-1.108 2.596,-2.102 4,-3 8.727,-5.582 17.8,-10.626 26.38,-16.43 2.778,-1.879 4.916,-4.587 7.62,-6.57 2.312,-1.695 5.08,-2.706 7.374,-4.426 3.061,-2.296 5.664,-5.151 8.626,-7.574 0.716,-0.586 1.698,-0.804 2.38,-1.43 1.308,-1.201 2.145,-2.877 3.526,-3.993 0.243,-0.196 0.479,0.455 0.787,0.506 0.183,0.03 0.334,-0.173 0.472,-0.298 0.634,-0.572 1.157,-1.268 1.835,-1.785 0.736,-0.561 1.66,-0.849 2.38,-1.43 0.624,-0.504 1.445,-1.004 1.609,-1.789 0.09,-0.435 -0.858,0.36 -1.299,0.303 -0.386,-0.049 -0.62,-0.521 -1.001,-0.598 -0.182,-0.038 -0.326,0.183 -0.472,0.298 -0.922,0.725 -1.971,1.325 -2.73,2.219 -0.142,0.168 0.578,0.403 0.397,0.528 -1.165,0.801 -2.687,0.994 -3.826,1.831 -0.754,0.554 -0.971,1.646 -1.702,2.23 -0.974,0.78 -2.324,0.99 -3.299,1.77 -0.731,0.585 -0.994,1.622 -1.702,2.234 -1.502,1.298 -3.379,2.119 -4.86,3.44 -0.167,0.148 0.568,0.391 0.399,0.536 -1.589,1.364 -3.346,2.543 -5.175,3.564 -0.49,0.273 -1.21,-0.081 -1.663,0.249 -0.751,0.549 -0.964,1.646 -1.703,2.21 -1.317,1.003 -2.961,1.496 -4.347,2.401 -1.055,0.689 -2.054,1.477 -2.95,2.363 -0.667,0.659 -0.922,1.719 -1.703,2.236 -3.62,2.395 -7.659,4.101 -11.342,6.398 -1.641,1.024 -2.963,2.505 -4.596,3.542 -1.146,0.728 -2.528,1.022 -3.692,1.722 -1.404,0.845 -2.543,2.098 -3.977,2.89 -0.498,0.275 -1.228,-0.094 -1.69,0.238 -0.753,0.544 -1.007,1.589 -1.7,2.208 -0.776,0.693 -1.855,0.984 -2.638,1.669 -1.889,1.652 -3.451,3.655 -5.338,5.308 -0.907,0.795 -1.946,1.441 -3.012,2.007 -1.748,0.928 -3.653,1.536 -5.402,2.461 -0.28,0.148 -0.514,0.423 -0.617,0.723 -0.113,0.331 -0.207,0.775 0.011,1.049 0.166,0.21 0.562,0.093 0.803,-0.024 m 137.188,-1.007 c 0,0 0,0 0,0 0.27,0.003 0.593,0.171 0.81,0.011 6.047,-4.468 11.718,-9.437 17.845,-13.793 1.964,-1.397 4.363,-2.087 6.368,-3.424 3.01,-2.006 5.651,-4.527 8.632,-6.577 2.363,-1.624 5.017,-2.794 7.374,-4.426 1.987,-1.376 3.638,-3.199 5.626,-4.574 1.454,-1.004 2.981,-1.97 4.656,-2.534 0.38,-0.128 0.635,0.68 1.032,0.622 0.255,-0.038 0.134,-0.556 -0.005,-0.773 -0.24,-0.377 -0.597,-0.954 -1.033,-0.855 -1.909,0.432 -3.661,1.409 -5.397,2.312 -1.826,0.95 -3.67,1.925 -5.259,3.232 -1.372,1.128 -2.145,2.877 -3.526,3.993 -0.243,0.196 -0.509,-0.647 -0.787,-0.506 -0.925,0.472 -1.436,1.53 -2.313,2.086 -2.035,1.292 -4.324,2.146 -6.368,3.424 -0.64,0.399 -0.998,1.155 -1.626,1.573 -2.385,1.59 -5.025,2.782 -7.374,4.426 -1.006,0.705 -1.633,1.864 -2.632,2.578 -1.355,0.967 -3.036,1.423 -4.368,2.422 -1.357,1.019 -2.34,2.466 -3.626,3.574 -1.266,1.091 -2.588,2.132 -4.012,3.008 -1.551,0.953 -3.619,1.141 -4.877,2.457 m -16.384,-3.603 c 0,0 0,0 0,0 0.87,-1.057 1.604,-2.242 2.611,-3.17 0.773,-0.713 1.871,-0.999 2.662,-1.692 1.983,-1.739 3.584,-3.893 5.62,-5.57 3.644,-3.001 7.753,-5.408 11.38,-8.43 2.388,-1.99 4.298,-4.503 6.62,-6.57 0.785,-0.699 1.841,-1.035 2.662,-1.692 0.855,-0.684 1.44,-1.681 2.338,-2.308 6.898,-4.82 13.915,-9.47 21.005,-14.002 3.032,-1.939 6.373,-3.378 9.348,-5.404 0.702,-0.477 0.84,-1.557 1.553,-2.017 0.262,-0.169 0.479,0.455 0.787,0.506 0.183,0.03 0.336,-0.17 0.471,-0.298 0.315,-0.299 0.777,-0.548 0.868,-0.973 0.107,-0.503 -0.082,-1.06 -0.339,-1.506 -0.216,-0.374 -0.592,-0.684 -1.001,-0.819 -0.189,-0.062 -0.385,0.163 -0.505,0.323 -0.669,0.888 -0.957,2.103 -1.835,2.785 -1.58,1.227 -3.638,1.693 -5.322,2.772 -0.631,0.404 -0.874,1.305 -1.55,1.629 -0.283,0.135 -0.483,-0.457 -0.793,-0.509 -0.182,-0.031 -0.319,0.189 -0.47,0.297 -3.069,2.185 -6.196,4.292 -9.188,6.58 -0.596,0.456 -0.873,1.307 -1.549,1.632 -0.283,0.135 -0.501,-0.625 -0.793,-0.509 -1,0.398 -1.85,1.132 -2.631,1.872 -0.671,0.635 -0.929,1.662 -1.675,2.208 -1.093,0.799 -2.533,0.999 -3.684,1.712 -2.322,1.439 -4.539,3.047 -6.697,4.721 -1.738,1.348 -3.413,2.786 -4.975,4.335 -0.664,0.659 -0.955,1.652 -1.669,2.258 -2.319,1.97 -5,3.48 -7.356,5.407 -1.312,1.073 -2.279,2.534 -3.62,3.57 -0.996,0.769 -2.34,1.005 -3.323,1.792 -0.729,0.584 -1.005,1.605 -1.701,2.231 -0.774,0.695 -1.884,0.952 -2.638,1.669 -2.277,2.165 -4.094,4.785 -6.397,6.921 -0.319,0.296 -0.922,-0.026 -1.289,0.208 -0.628,0.4 -0.878,1.29 -1.552,1.605 -0.286,0.133 -0.489,-0.445 -0.798,-0.51 -0.138,-0.029 -0.32,0.133 -0.322,0.274 -0.006,0.464 -0.029,1.032 0.3,1.359 0.256,0.256 0.761,0.182 1.085,0.022 M 643.497,462.812 c 0,0 0,0 0,0 2.894,-1.173 5.902,-2.097 8.681,-3.521 2.144,-1.098 4.074,-2.577 6.012,-4.006 1.943,-1.433 3.611,-3.231 5.62,-4.57 5.001,-3.334 10.372,-6.092 15.374,-9.426 1.02,-0.68 1.626,-1.865 2.626,-2.574 7.016,-4.97 14.354,-9.474 21.38,-14.43 0.655,-0.462 1.208,-1.092 1.609,-1.785 0.094,-0.162 -0.167,-0.341 -0.299,-0.474 -0.306,-0.305 -0.593,-0.68 -1,-0.825 -0.176,-0.063 -0.352,0.158 -0.475,0.299 -0.746,0.852 -1.197,1.994 -2.113,2.658 -1.553,1.125 -3.539,1.531 -5.136,2.592 -1.008,0.669 -1.598,1.85 -2.592,2.539 -3.357,2.323 -7.051,4.134 -10.407,6.458 -0.993,0.688 -1.597,1.846 -2.587,2.538 -2.349,1.643 -4.987,2.838 -7.374,4.426 -0.614,0.409 -0.965,1.148 -1.591,1.539 -2.061,1.288 -4.394,2.115 -6.415,3.465 -1.017,0.68 -1.645,1.831 -2.62,2.57 -3.243,2.459 -6.513,4.908 -10.004,7.001 -2.408,1.445 -4.984,2.628 -7.627,3.574 -0.441,0.158 -1.132,0.055 -1.359,-0.354 -0.191,-0.343 0.508,-0.631 0.6,-1.012 0.034,-0.137 -0.137,-0.29 -0.275,-0.324 -0.341,-0.084 -0.877,-0.308 -1.054,-0.005 -0.4,0.686 -0.537,1.597 -0.322,2.361 m 73.804,-8.007 c 0,0 0,0 0,0 0.619,-0.601 1.161,-1.294 1.857,-1.804 3.058,-2.241 6.347,-4.156 9.38,-6.43 0.979,-0.734 1.665,-1.806 2.62,-2.57 0.723,-0.578 1.659,-0.849 2.38,-1.43 0.624,-0.503 1.208,-1.092 1.609,-1.785 0.094,-0.162 -0.167,-0.341 -0.299,-0.474 -0.306,-0.305 -0.593,-0.68 -1,-0.825 -0.176,-0.063 -0.349,0.161 -0.475,0.299 -1.071,1.178 -1.968,2.513 -3.099,3.634 -0.825,0.817 -1.767,1.519 -2.741,2.153 -2.403,1.564 -5.034,2.773 -7.375,4.43 -0.454,0.321 -0.496,1.017 -0.884,1.417 -0.842,0.866 -2.1,1.333 -2.767,2.341 -0.252,0.381 0.063,0.964 0.34,1.328 m 115.985,-8.972 c 0,0 0,0 0,0 0.117,-0.45 0.344,-0.886 0.349,-1.351 0.002,-0.144 -0.206,-0.357 -0.328,-0.28 -0.521,0.327 -1.297,0.69 -1.305,1.305 m 7.752,-3.986 c 0,0 0,0 0,0 0.283,-0.339 0.679,-0.611 0.849,-1.019 0.055,-0.13 -0.179,-0.373 -0.298,-0.298 -0.52,0.326 -1.065,0.735 -1.301,1.301 m -101.65,-3.531 c 0,0 0,0 0,0 -0.128,0.517 -0.527,1.037 -0.384,1.55 0.072,0.259 0.594,0.142 0.807,-0.023 1.049,-0.808 1.808,-1.948 2.835,-2.784 0.815,-0.664 1.833,-1.046 2.662,-1.692 1.839,-1.432 4.115,-2.539 5.327,-4.53 0.412,-0.677 -1.587,-0.562 -2.352,-0.354 -0.859,0.233 -1.645,0.848 -2.155,1.577 -0.178,0.255 0.525,0.474 0.504,0.784 -0.021,0.33 -0.343,0.583 -0.607,0.782 m -88.23,2.241 c 0,0 0,0 0,0 0.606,-0.591 1.078,-1.361 1.817,-1.773 2.297,-1.28 4.858,-2.031 7.191,-3.246 1.814,-0.944 3.581,-2 5.223,-3.219 2.316,-1.719 4.344,-3.8 6.62,-5.57 0.731,-0.568 1.677,-0.828 2.38,-1.43 1.645,-1.41 2.928,-3.217 4.62,-4.57 1.661,-1.329 3.679,-2.154 5.38,-3.43 0.979,-0.734 1.602,-1.891 2.62,-2.57 4.002,-2.668 8.316,-4.843 12.374,-7.426 1.408,-0.897 2.766,-1.887 4.006,-3.004 2.31,-2.081 4.304,-4.496 6.62,-6.57 0.965,-0.864 2.243,-1.334 3.192,-2.217 3.627,-3.375 7.153,-6.868 10.498,-10.523 0.213,-0.233 0.155,-0.673 0,-0.949 -0.212,-0.376 -0.593,-0.68 -1,-0.825 -0.176,-0.063 -0.336,0.174 -0.475,0.3 -0.447,0.401 -0.964,0.76 -1.275,1.274 -0.701,1.162 -0.792,2.701 -1.721,3.69 -1.629,1.735 -4.022,2.601 -5.737,4.251 -0.224,0.216 0.518,0.474 0.504,0.784 -0.014,0.313 -0.296,0.598 -0.572,0.746 -1.743,0.937 -3.659,1.523 -5.4,2.463 -0.294,0.159 -0.593,0.456 -0.62,0.79 -0.024,0.3 0.667,0.507 0.496,0.755 -0.529,0.774 -1.549,1.074 -2.205,1.742 -0.084,0.086 0.305,0.22 0.209,0.291 -2.562,1.907 -5.366,3.478 -7.894,5.43 -0.416,0.322 -0.412,1.045 -0.857,1.327 -3.268,2.079 -6.909,3.538 -10.143,5.671 -3.749,2.473 -7.283,5.267 -10.757,8.113 -2.818,2.309 -5.309,4.997 -8.102,7.337 -2.168,1.817 -4.332,3.683 -6.767,5.123 -2.969,1.757 -6.405,2.639 -9.361,4.419 -1.095,0.66 -2.137,1.616 -2.623,2.798 -0.175,0.424 0.874,0.333 1.332,0.338 m 95.946,-7.051 c 0,0 0,0 0,0 0.339,-0.272 0.782,-0.451 1.018,-0.817 0.145,-0.225 0.28,-0.71 0.029,-0.805 -0.434,-0.164 -1.108,-0.089 -1.359,0.301 m -1.376,1.056 c 0,0 0,0 0,0 -0.437,-0.12 -0.858,-0.351 -1.31,-0.359 -0.146,-0.002 -0.405,0.255 -0.282,0.332 0.387,0.245 0.875,0.325 1.332,0.332 m 5.422,-2.311 c 0,0 0,0 0,0 2.282,-1.675 5.286,-2.663 6.845,-5.026 0.73,-1.107 -2.756,-0.009 -3.93,0.607 -1.059,0.556 -1.353,2.063 -2.369,2.696 -0.329,0.205 -0.618,-0.52 -0.999,-0.597 -0.183,-0.037 -0.341,0.167 -0.473,0.299 -0.305,0.306 -0.913,0.577 -0.825,1 0.125,0.601 0.773,0.993 1.303,1.302 m -31.552,-1.281 c 0,0 0,0 0,0 2.079,-1.412 4.244,-2.706 6.238,-4.236 0.636,-0.488 1.208,-1.092 1.609,-1.785 0.094,-0.162 -0.167,-0.342 -0.299,-0.474 -0.307,-0.305 -0.586,-0.941 -1.004,-0.825 -0.342,0.095 0.487,0.834 0.203,1.048 -1.456,1.092 -3.411,1.379 -4.877,2.458 -1.055,0.777 -1.49,2.215 -2.538,3.001 -0.25,0.188 -0.693,-0.802 -0.79,-0.505 -0.144,0.444 0.186,0.983 0.532,1.296 m -13.073,-2.979 c 0,0 0,0 0,0 0.63,-0.664 1.5,-1.164 1.889,-1.992 0.198,-0.422 0.092,-1.134 -0.313,-1.363 -0.449,-0.253 -1.088,0.037 -1.51,0.333 -0.738,0.517 -1.68,1.111 -1.818,2.002 -0.095,0.607 0.772,0.993 1.303,1.302 m 55.286,-2.123 c 0,0 0,0 0,0 1.8,-1.131 3.683,-2.14 5.4,-3.394 0.649,-0.474 1.246,-1.063 1.652,-1.758 0.177,-0.303 0.242,-0.807 -0.007,-1.056 -0.33,-0.329 -0.983,-0.583 -1.363,-0.313 -1.296,0.922 -1.925,2.583 -3.188,3.55 -0.248,0.19 -0.569,-0.726 -0.79,-0.505 -0.26,0.259 0.422,0.778 0.214,1.081 -0.444,0.647 -1.151,1.168 -1.905,1.383 -0.445,0.127 -0.857,-0.571 -1.307,-0.466 -0.25,0.059 -0.165,0.579 0.005,0.773 m -50.023,-0.182 c 0,0 0,0 0,0 2.341,-1.939 4.833,-3.708 7.022,-5.817 0.227,-0.219 0.106,-0.651 0,-0.949 -0.084,-0.233 -0.297,-0.432 -0.526,-0.525 -0.239,-0.098 -0.728,-0.259 -0.772,-0.005 -0.067,0.384 0.641,0.617 0.597,1.005 -0.049,0.429 -0.412,0.873 -0.825,0.999 -0.48,0.146 -1.019,-0.508 -1.475,-0.299 -1.472,0.673 -2.809,1.668 -3.976,2.791 -0.38,0.366 -0.483,0.979 -0.491,1.507 m 21.759,-0.982 c 0,0 0,0 0,0 -0.272,-0.337 -0.45,-0.779 -0.816,-1.013 -0.228,-0.146 -0.757,-0.293 -0.812,-0.028 -0.161,0.766 -0.327,1.903 0.332,2.325 m 2.524,-2.323 c 0,0 0,0 0,0 0.317,0.009 0.685,0.198 0.952,0.026 3.075,-1.976 6.216,-3.917 8.925,-6.371 0.41,-0.371 0.2,-1.17 -0.06,-1.659 -0.127,-0.238 -0.576,-0.11 -0.81,0.025 -1.725,1.001 -3.434,2.059 -4.972,3.328 -1.392,1.148 -2.321,2.808 -3.77,3.881 -0.251,0.186 -0.688,-0.801 -0.79,-0.505 m 37.986,-0.413 c 0,0 0,0 0,0 1.412,-1.499 2.624,-3.216 4.236,-4.498 0.244,-0.194 0.479,0.56 0.787,0.506 0.424,-0.074 0.785,-0.445 1,-0.819 0.255,-0.446 0.324,-0.993 0.332,-1.508 0.002,-0.144 -0.162,-0.308 -0.306,-0.306 -0.515,0.007 -1.06,0.077 -1.508,0.331 -1.247,0.706 -2.554,1.422 -3.496,2.501 -0.287,0.329 0.377,0.902 0.186,1.293 -0.323,0.662 -1.247,0.891 -1.573,1.552 m -50.185,-1.322 c 0,0 0,0 0,0 0.616,-0.674 1.698,-1.12 1.846,-2.02 0.1,-0.604 -0.709,-1.463 -1.299,-1.299 -1.044,0.29 -2.01,1.254 -2.299,2.299 -0.164,0.592 0.772,0.993 1.303,1.302 m -60.716,-0.119 c 0,0 0,0 0,0 3.134,-1.8 6.416,-3.363 9.402,-5.398 3.372,-2.298 6.329,-5.157 9.62,-7.57 1.715,-1.258 3.719,-2.101 5.38,-3.43 1.692,-1.353 2.978,-3.158 4.62,-4.57 0.797,-0.686 1.864,-1.008 2.662,-1.692 1.547,-1.326 2.788,-2.984 4.338,-4.308 0.704,-0.601 1.677,-0.828 2.38,-1.43 1.645,-1.41 2.975,-3.16 4.62,-4.57 0.703,-0.602 1.692,-0.811 2.38,-1.43 2.661,-2.395 4.96,-5.174 7.62,-7.57 0.781,-0.704 1.864,-1.008 2.662,-1.692 1.547,-1.326 2.788,-2.984 4.338,-4.308 0.704,-0.601 1.688,-0.815 2.38,-1.43 2.324,-2.065 4.214,-4.601 6.62,-6.57 4.944,-4.045 10.367,-7.472 15.38,-11.43 1.33,-1.05 2.273,-2.542 3.62,-3.57 2.226,-1.699 4.797,-2.907 7.049,-4.573 0.172,-0.127 0.172,-0.517 -0.003,-0.64 -0.397,-0.281 -0.942,-0.479 -1.415,-0.362 -1.298,0.319 -2.493,0.979 -3.669,1.613 -1.042,0.562 -2.065,1.189 -2.962,1.962 -1.641,1.414 -2.978,3.158 -4.62,4.57 -0.797,0.686 -1.841,1.035 -2.662,1.692 -0.855,0.684 -1.459,1.655 -2.338,2.308 -1.707,1.269 -3.701,2.124 -5.38,3.43 -1.338,1.04 -2.318,2.485 -3.62,3.57 -0.711,0.593 -1.684,0.821 -2.38,1.43 -1.985,1.737 -3.635,3.833 -5.62,5.57 -0.696,0.609 -1.684,0.821 -2.38,1.43 -1.985,1.737 -3.635,3.833 -5.62,5.57 -0.696,0.609 -1.688,0.815 -2.38,1.43 -2.324,2.065 -4.296,4.505 -6.62,6.57 -0.692,0.615 -1.693,0.81 -2.38,1.43 -0.759,0.685 -1.115,1.746 -1.884,2.419 -1.917,1.677 -4.19,2.915 -6.116,4.581 -1.995,1.725 -3.637,3.831 -5.62,5.57 -0.791,0.693 -1.854,1.019 -2.662,1.692 -1.206,1.004 -2.085,2.376 -3.344,3.312 -1.336,0.993 -3.013,1.455 -4.368,2.422 -0.997,0.713 -1.645,1.839 -2.626,2.574 -1.701,1.276 -3.7,2.125 -5.38,3.43 -1.325,1.03 -2.231,2.543 -3.585,3.535 -1.444,1.057 -3.03,1.973 -4.724,2.549 -0.37,0.126 -0.627,-0.508 -1.007,-0.599 -0.14,-0.034 -0.311,0.134 -0.331,0.276 -0.097,0.675 -0.186,1.39 0,2.046 m 65.627,-2.843 c 0,0 0,0 0,0 1.799,-1.133 3.654,-2.182 5.399,-3.397 0.272,-0.189 0.529,-0.463 0.609,-0.784 0.044,-0.181 -0.148,-0.362 -0.298,-0.472 -0.398,-0.289 -0.833,-0.841 -1.303,-0.693 -0.756,0.238 -1.29,0.978 -1.719,1.645 -0.18,0.279 0.173,0.7 0.022,0.996 -0.198,0.387 -0.539,0.835 -0.973,0.868 -0.708,0.054 -1.368,-0.893 -2.031,-0.64 -0.415,0.158 0.359,0.857 0.303,1.298 -0.049,0.386 -0.593,0.613 -0.596,1.002 m 55.756,-0.989 c 0,0 0,0 0,0 0.586,-0.741 0.974,-1.694 1.757,-2.221 0.258,-0.175 0.513,0.656 0.787,0.506 1.711,-0.941 3.162,-2.295 4.687,-3.515 0.26,-0.208 0.539,-0.444 0.651,-0.758 0.118,-0.331 0.242,-0.805 -0.006,-1.054 -0.329,-0.329 -0.992,-0.596 -1.36,-0.312 -1.022,0.788 -1.264,2.335 -2.285,3.123 -1.442,1.114 -3.43,1.347 -4.9,2.425 -0.254,0.186 0.523,0.481 0.508,0.795 -0.019,0.388 -0.657,0.618 -0.596,1.001 m -32.398,0.218 c 0,0 0,0 0,0 2.462,-1.48 4.981,-2.868 7.385,-4.439 0.277,-0.181 0.529,-0.463 0.609,-0.784 0.044,-0.181 -0.148,-0.362 -0.298,-0.472 -0.398,-0.289 -0.833,-0.841 -1.303,-0.693 -0.756,0.238 -1.29,0.978 -1.719,1.645 -0.18,0.279 0.173,0.7 0.022,0.996 -0.198,0.387 -0.539,0.835 -0.973,0.868 -0.707,0.054 -1.325,-0.545 -2.027,-0.641 -0.186,-0.026 -0.336,0.174 -0.475,0.299 -0.459,0.414 -0.95,0.808 -1.31,1.31 -0.597,0.835 -1.264,1.679 -1.537,2.668 -0.07,0.256 0.555,0.135 0.795,0.023 m 11.985,-6.976 c 0,0 0,0 0,0 2.411,-1.747 4.899,-3.391 7.232,-5.24 0.961,-0.761 1.592,-1.915 2.626,-2.573 2.662,-1.694 5.706,-2.73 8.368,-4.424 1.036,-0.659 1.633,-1.863 2.632,-2.577 1.355,-0.967 2.983,-1.499 4.368,-2.422 0.627,-0.419 1.006,-1.145 1.626,-1.574 3.725,-2.579 7.674,-4.824 11.38,-7.43 1.32,-0.928 2.55,-1.995 3.673,-3.154 0.146,-0.15 0.157,-0.501 -0.01,-0.626 -0.221,-0.166 -0.6,-0.16 -0.828,-0.004 -0.939,0.642 -1.521,1.758 -2.522,2.297 -0.278,0.15 -0.506,-0.631 -0.798,-0.51 -0.617,0.256 -0.793,1.169 -1.41,1.424 -0.292,0.121 -0.519,-0.659 -0.798,-0.51 -2.371,1.268 -4.547,2.885 -6.687,4.513 -0.976,0.742 -1.629,1.862 -2.626,2.574 -1.347,0.961 -3.074,1.342 -4.346,2.401 -0.786,0.655 -0.852,1.948 -1.647,2.592 -1.046,0.846 -2.542,0.954 -3.66,1.702 -0.36,0.24 -0.296,0.846 -0.605,1.149 -0.624,0.614 -1.276,1.34 -2.129,1.538 -0.772,0.179 -1.541,-0.631 -2.324,-0.505 -0.366,0.059 -0.257,0.735 -0.546,0.968 -2.458,1.98 -5.273,3.51 -7.627,5.614 -0.225,0.202 0.437,0.463 0.499,0.76 0.029,0.139 -0.137,0.287 -0.273,0.329 -0.544,0.165 -1.193,-0.018 -1.685,0.267 -0.645,0.373 -0.877,1.291 -1.551,1.607 -0.284,0.133 -0.483,-0.562 -0.793,-0.509 -0.424,0.073 -0.785,0.445 -1,0.819 -0.255,0.446 -0.586,1.06 -0.332,1.508 0.231,0.406 0.9,0.315 1.367,0.314 m -21.58,-0.322 c 0,0 0,0 0,0 2.079,-1.412 4.286,-2.653 6.238,-4.236 1.682,-1.364 2.975,-3.16 4.62,-4.57 0.703,-0.602 1.654,-0.856 2.38,-1.43 0.631,-0.499 1.246,-1.063 1.652,-1.757 0.177,-0.304 0.242,-0.808 -0.007,-1.057 -0.33,-0.329 -0.974,-0.571 -1.363,-0.313 -1.537,1.021 -2.72,2.501 -3.972,3.857 -0.267,0.289 -0.252,0.788 -0.551,1.045 -0.794,0.68 -1.887,0.967 -2.642,1.691 -0.147,0.141 0.559,0.376 0.382,0.476 -1.212,0.683 -2.827,0.609 -3.892,1.502 -1.527,1.28 -2.578,3.061 -3.595,4.774 m -2.221,0.019 c 0,0 0,0 0,0 -0.261,-0.01 -0.734,-0.286 -0.782,-0.029 -0.071,0.384 0.6,0.616 0.6,1.007 10e-4,0.39 -0.509,0.625 -0.597,1.004 -0.032,0.135 0.177,0.369 0.294,0.295 0.519,-0.326 1.175,-0.699 1.303,-1.299 m 55.681,-1.71 c 0,0 0,0 0,0 1.237,-0.835 2.582,-1.528 3.71,-2.505 1.892,-1.638 3.769,-3.335 5.313,-5.304 0.351,-0.448 0.72,-1.53 0.176,-1.699 -0.659,-0.205 -1.038,0.936 -1.657,1.239 -0.246,0.121 -0.76,-0.292 -0.821,-0.025 -0.086,0.38 0.642,0.617 0.598,1.005 -0.049,0.429 -0.422,0.844 -0.825,0.999 -0.552,0.211 -1.323,-0.387 -1.772,-0.004 -0.297,0.253 0.52,0.623 0.597,1.005 0.037,0.183 -0.171,0.337 -0.299,0.473 -0.299,0.318 -0.57,0.705 -0.971,0.877 -0.515,0.22 -1.222,-0.097 -1.662,0.249 -0.986,0.777 -1.686,1.873 -2.368,2.926 m 11.291,-8.347 c 0,0 0,0 0,0 2.003,-1.396 4.262,-2.481 6.009,-4.186 0.335,-0.327 -0.904,-0.467 -1.358,-0.353 -1.295,0.324 -2.537,0.898 -3.666,1.611 -0.666,0.42 -1.32,0.993 -1.617,1.722 -0.176,0.432 0.148,0.938 0.364,1.351 m -47.732,-3.145 c 0,0 0,0 0,0 3.133,-2.132 6.47,-3.99 9.4,-6.394 2.768,-2.271 4.916,-5.223 7.62,-7.57 2.403,-2.085 5.217,-3.656 7.662,-5.692 1.244,-1.036 2.408,-2.194 3.37,-3.495 0.209,-0.284 0.242,-0.808 -0.007,-1.057 -0.33,-0.329 -0.977,-0.574 -1.363,-0.313 -1.642,1.11 -2.736,2.886 -4.282,4.127 -2.019,1.62 -4.405,2.756 -6.38,4.43 -1.138,0.964 -1.804,2.391 -2.884,3.419 -2.433,2.315 -5.234,4.229 -7.629,6.584 -0.157,0.154 0.58,0.406 0.397,0.528 -2.081,1.392 -4.638,2.038 -6.585,3.612 -0.432,0.349 -0.139,1.145 0.056,1.666 m -78.369,-6.829 c 0,0 0,0 0,0 1.462,-0.802 2.996,-1.485 4.387,-2.405 0.629,-0.417 0.999,-1.156 1.627,-1.575 2.385,-1.59 4.988,-2.836 7.374,-4.426 0.627,-0.419 1.008,-1.141 1.626,-1.574 2.727,-1.909 5.719,-3.434 8.382,-5.432 2.682,-2.011 5,-4.473 7.618,-6.568 0.723,-0.578 1.669,-0.837 2.38,-1.43 1.302,-1.085 2.312,-2.493 3.62,-3.57 2.573,-2.119 5.266,-4.092 8,-6 2.73,-1.905 5.674,-3.491 8.38,-5.43 0.654,-0.468 1.246,-1.063 1.652,-1.758 0.176,-0.303 0.206,-0.777 -0.012,-1.052 -0.166,-0.21 -0.564,-0.097 -0.803,0.024 -1.295,0.652 -2.61,1.323 -3.721,2.255 -0.17,0.143 0.577,0.403 0.398,0.533 -1.842,1.327 -3.989,2.181 -5.888,3.425 -1.054,0.69 -2.054,1.476 -2.95,2.362 -0.72,0.713 -1.007,1.861 -1.864,2.402 -0.431,0.272 -1.019,-0.429 -1.505,-0.275 -0.347,0.11 -0.298,0.689 -0.569,0.933 -3.846,3.463 -7.665,6.97 -11.744,10.155 -1.313,1.024 -2.983,1.499 -4.368,2.422 -0.627,0.419 -1.012,1.136 -1.626,1.574 -1.731,1.236 -3.678,2.154 -5.38,3.43 -0.981,0.735 -1.606,1.893 -2.626,2.573 -2.005,1.337 -4.362,2.088 -6.368,3.424 -2,1.332 -3.633,3.159 -5.597,4.543 -0.891,0.628 -2.618,0.417 -2.925,1.463 m 58.186,-4.928 c 0,0 0,0 0,0 6.173,-6.096 12.38,-12.159 18.518,-18.29 0.303,-0.302 0.645,-0.605 0.801,-1.004 0.05,-0.129 -0.16,-0.326 -0.295,-0.294 -0.379,0.088 -0.614,0.598 -1.004,0.597 -0.389,0 -0.62,-0.521 -1.001,-0.598 -0.183,-0.037 -0.341,0.167 -0.473,0.299 -0.305,0.306 -0.777,0.57 -0.825,0.999 -0.044,0.387 0.521,0.62 0.598,1.002 0.037,0.183 -0.167,0.342 -0.299,0.474 -0.638,0.638 -1.164,1.483 -1.999,1.824 -0.36,0.147 -0.621,-0.521 -1.002,-0.598 -0.183,-0.037 -0.341,0.167 -0.473,0.299 -0.305,0.306 -0.777,0.57 -0.825,0.999 -0.044,0.387 0.642,0.615 0.598,1.002 -0.048,0.429 -0.412,0.873 -0.825,0.999 -0.48,0.146 -0.999,-0.459 -1.475,-0.299 -0.626,0.21 -1.03,0.832 -1.497,1.299 -0.302,0.302 -0.758,0.575 -0.801,0.999 -0.04,0.387 0.743,0.641 0.598,1.002 -0.333,0.832 -1.174,1.356 -1.799,1.999 -1.317,1.357 -2.455,2.944 -4.025,4 -0.416,0.28 -0.985,-0.404 -1.476,-0.299 -0.422,0.09 -0.873,0.412 -0.999,0.825 -0.146,0.48 0.36,0.977 0.299,1.474 -0.047,0.388 -0.506,0.628 -0.6,1.007 m 23.76,-21.984 c 0,0 0,0 0,0 1.847,-1.849 3.817,-3.583 5.54,-5.548 0.17,-0.194 0.243,-0.872 0.005,-0.774 -0.79,0.326 -1.193,1.329 -2.003,1.598 -0.369,0.123 -0.642,-0.745 -1.002,-0.598 -0.835,0.341 -1.545,1.044 -1.999,1.824 -0.213,0.368 0.442,0.904 0.208,1.259 -0.615,0.932 -2.041,1.208 -2.507,2.223 -0.191,0.416 0.874,0.332 1.331,0.336 m -68.035,-1.989 c 0,0 0,0 0,0 2.771,-2.38 5.382,-4.959 8.313,-7.139 7.643,-5.684 15.727,-10.76 23.38,-16.43 2.354,-1.744 4.698,-3.572 6.61,-5.79 0.299,-0.346 -0.931,-0.564 -1.327,-0.337 -1.939,1.112 -3.46,2.835 -5.283,4.127 -1.735,1.23 -3.679,2.154 -5.38,3.43 -0.979,0.734 -1.628,1.854 -2.62,2.57 -5.022,3.627 -10.422,6.716 -15.38,10.43 -3.69,2.764 -7.423,5.563 -10.525,8.974 m 49.539,-13.144 c 0,0 0,0 0,0 -0.108,-0.782 0.465,-2.321 -0.324,-2.347 -0.783,-0.026 -0.444,1.549 -0.337,2.325 m 4.797,-3 c 0,0 0,0 0,0 0.617,-0.603 1.165,-1.284 1.85,-1.808 0.735,-0.563 1.676,-0.829 2.38,-1.43 1.469,-1.253 2.852,-2.618 4.095,-4.095 0.658,-0.782 1.269,-1.658 1.571,-2.635 0.141,-0.455 0.085,-1.152 -0.327,-1.39 -0.446,-0.257 -1.058,0.084 -1.509,0.332 -0.38,0.21 -0.83,0.543 -0.862,0.976 -0.052,0.707 0.911,1.374 0.641,2.03 -0.489,1.186 -1.662,1.967 -2.633,2.805 -1.471,1.268 -2.935,2.608 -4.665,3.491 -0.347,0.177 -0.668,-0.795 -1.004,-0.598 -0.957,0.561 -1.838,1.44 -2.214,2.483 -0.141,0.393 0.802,0.31 1.218,0.285 m -47.541,-6.446 c 0,0 0,0 0,0 1.283,-1.269 2.486,-2.625 3.85,-3.808 1.261,-1.093 2.609,-2.091 4.006,-3.004 2.401,-1.567 5.056,-2.74 7.374,-4.426 1.371,-0.997 2.308,-2.497 3.62,-3.57 2.364,-1.934 5.016,-3.496 7.38,-5.43 1.312,-1.073 2.318,-2.485 3.62,-3.57 0.711,-0.593 1.705,-0.797 2.38,-1.43 1.981,-1.859 3.523,-4.155 5.528,-5.989 0.173,-0.158 0.354,0.499 0.571,0.411 1.039,-0.426 2,-1.066 2.843,-1.809 0.687,-0.607 0.932,-1.646 1.677,-2.18 1.007,-0.722 2.332,-0.869 3.415,-1.472 0.275,-0.153 0.504,-0.442 0.573,-0.749 0.041,-0.181 -0.166,-0.339 -0.297,-0.47 -0.307,-0.306 -0.619,-1.027 -1.003,-0.826 -1.334,0.699 -2.1,2.179 -3.305,3.082 -1.702,1.277 -3.68,2.155 -5.382,3.432 -0.979,0.734 -1.665,1.806 -2.62,2.57 -0.715,0.571 -1.709,0.761 -2.356,1.407 -0.723,0.723 -0.846,1.95 -1.643,2.59 -0.967,0.775 -2.416,0.737 -3.416,1.468 -0.811,0.594 -1.108,1.704 -1.849,2.384 -3.468,3.178 -6.933,6.393 -10.742,9.154 -2.923,2.119 -6.463,3.292 -9.374,5.427 -2.757,2.022 -5.283,4.389 -7.527,6.97 -0.273,0.314 0.802,0.309 1.218,0.284 m 39.457,-9.444 c 0,0 0,0 0,0 0.919,-0.738 2.122,-1.22 2.757,-2.213 0.225,-0.352 -0.865,-0.329 -1.244,-0.153 -0.776,0.359 -1.164,1.358 -1.97,1.64 -0.369,0.129 -0.664,-0.787 -1.007,-0.599 -0.4,0.218 -0.322,0.872 -0.328,1.329 -0.002,0.144 0.161,0.306 0.305,0.306 m 6.326,-4.145 c 0,0 0,0 0,0 0.892,-0.555 1.854,-1.011 2.674,-1.666 0.527,-0.421 1.097,-0.893 1.328,-1.528 0.088,-0.242 -0.55,-0.123 -0.774,0.005 -0.581,0.329 -0.881,1.12 -1.524,1.298 -0.376,0.104 -0.668,-0.795 -1.004,-0.598 -0.957,0.56 -1.914,1.415 -2.214,2.482 m 7.67,-4.163 c 0,0 0,0 0,0 0.849,-0.848 1.824,-1.587 2.546,-2.545 0.166,-0.22 0.259,-0.914 -0.002,-0.827 -0.855,0.285 -1.356,1.264 -2.207,1.563 -0.296,0.104 -0.483,-0.564 -0.793,-0.509 -0.424,0.075 -0.785,0.449 -0.997,0.824 -0.154,0.276 -0.155,0.673 0,0.948 0.214,0.377 0.598,0.675 1.004,0.828 m -36.739,-10.08 c 0,0 0,0 0,0 1.721,-0.734 3.514,-1.319 5.163,-2.203 2.697,-1.445 5.152,-3.313 7.845,-4.766 2.4,-1.295 5.051,-2.103 7.413,-3.467 1.569,-0.906 3.058,-2.001 4.316,-3.305 0.357,-0.37 0.486,-1.017 0.328,-1.506 -0.082,-0.256 -0.593,-0.138 -0.805,0.026 -1.053,0.812 -1.681,2.155 -2.848,2.792 -6.966,3.802 -14.385,6.723 -21.397,10.439 -0.709,0.376 -1.63,0.964 -1.636,1.767"
           id="path17" />
      </g>
      <g
         id="g23"
         transform="matrix(0.71996693,0,0,0.71996693,-33.798723,-6.0277897)">
        <path
           fill="#d90707"
           d="m 313.769,1023.72 c 0,0 0,0 0,0 1.232,-0.56 2.531,-1 3.697,-1.69 0.517,-0.31 0.748,-1 1.288,-1.26 1.426,-0.69 3.111,-0.77 4.495,-1.54 1.663,-0.93 2.946,-2.42 4.526,-3.48 1.277,-0.86 2.915,-1.19 4.024,-2.26 0.328,-0.31 -0.874,-0.39 -1.326,-0.33 -0.385,0.05 -0.585,0.63 -0.973,0.64 -0.389,0.01 -0.662,-0.79 -1.001,-0.6 -2.039,1.15 -3.532,3.12 -5.558,4.29 -4.069,2.35 -8.76,3.59 -12.647,6.23 m -120.335,-5.2 c 0,0 0,0 0,0 0.94,-0.92 1.674,-2.12 2.82,-2.77 2.002,-1.14 4.357,-1.53 6.445,-2.5 5.387,-2.52 10.773,-5.06 15.962,-7.96 1.685,-0.95 2.933,-2.55 4.59,-3.54 1.696,-1.02 3.647,-1.54 5.402,-2.458 2.386,-1.243 4.713,-2.601 7.008,-4.005 1.601,-0.98 3.214,-1.963 4.673,-3.145 0.164,-0.133 0.126,-0.471 -0.007,-0.635 -0.141,-0.176 -0.455,-0.289 -0.652,-0.18 -2.753,1.519 -5.255,3.471 -8.022,4.965 -3.037,1.639 -6.381,2.681 -9.362,4.418 -1.061,0.62 -1.665,1.82 -2.632,2.58 -0.665,0.52 -1.465,0.84 -2.219,1.22 -5.163,2.58 -10.286,5.26 -15.531,7.68 -2.14,0.98 -4.542,1.37 -6.604,2.51 -1.42,0.79 -2.671,1.91 -3.694,3.17 -0.215,0.26 0.017,0.85 0.337,0.96 m -72.704,-1.11 c 0,0 0,0 0,0 3.678,-1.69 7.285,-3.54 11.035,-5.06 2.42,-0.98 5.031,-1.44 7.446,-2.43 3.244,-1.34 6.273,-3.16 9.496,-4.55 4.449,-1.91 9.085,-3.39 13.508,-5.36 2.577,-1.153 5.122,-2.427 7.462,-4.005 0.354,-0.239 -0.87,-0.316 -1.272,-0.171 -1.055,0.38 -1.832,1.389 -2.915,1.679 -0.388,0.104 -0.634,-0.677 -1.032,-0.621 -0.33,0.046 -0.244,0.689 -0.541,0.842 -3.403,1.743 -6.83,3.486 -10.428,4.776 -0.388,0.14 -0.67,-0.79 -1.056,-0.64 -2.871,1.08 -5.401,2.93 -8.219,4.14 -6.098,2.62 -12.392,4.77 -18.506,7.36 -2.27,0.96 -4.574,1.92 -6.63,3.28 -0.263,0.17 0.07,0.74 0.356,0.87 m 167.984,-1.01 c 0,0 0,0 0,0 0.506,-0.1 1.046,-0.1 1.518,-0.31 1.467,-0.66 2.909,-1.39 4.253,-2.26 1.02,-0.67 1.75,-1.74 2.803,-2.35 2.967,-1.73 6.186,-3 9.197,-4.65 5.565,-3.06 10.9,-6.53 16.523,-9.478 1.403,-0.736 3.046,-0.903 4.495,-1.543 0.281,-0.124 0.498,-0.413 0.595,-0.705 0.11,-0.331 0.137,-0.731 -0.012,-1.046 -0.086,-0.183 -0.378,-0.248 -0.574,-0.198 -1.532,0.39 -3.085,0.787 -4.501,1.488 -0.652,0.324 -0.957,1.127 -1.57,1.52 -2.244,1.442 -4.6,2.707 -6.956,3.962 -5.435,2.89 -11.033,5.47 -16.412,8.46 -0.663,0.37 -0.981,1.21 -1.639,1.58 -1.717,0.99 -3.684,1.48 -5.404,2.46 -0.98,0.56 -1.958,1.22 -2.637,2.12 m -39.852,-0.16 c 0,0 0,0 0,0 0.519,-0.68 0.813,-1.61 1.556,-2.02 4.96,-2.77 10.319,-4.76 15.346,-7.4 1.312,-0.69 2.345,-1.83 3.628,-2.58 4.623,-2.67 9.457,-4.976 14.07,-7.668 0.152,-0.089 0.132,-0.436 -0.018,-0.529 -0.406,-0.254 -0.932,-0.484 -1.394,-0.355 -0.532,0.149 -0.758,0.834 -1.248,1.092 -2.413,1.269 -5.021,2.148 -7.41,3.464 -5.038,2.776 -9.749,6.126 -14.846,8.786 -2.613,1.37 -5.576,1.96 -8.218,3.27 -1.001,0.5 -2.225,1.05 -2.615,2.1 m 37.817,-18.349 c 0,0 0,0 0,0 3.726,-2.199 7.633,-4.118 11.18,-6.598 0.802,-0.561 1.57,-1.43 1.691,-2.402 0.057,-0.462 -0.952,-0.606 -1.348,-0.362 -0.953,0.588 -1.308,1.859 -2.193,2.545 -0.183,0.142 -0.381,-0.55 -0.564,-0.408 -0.73,0.568 -0.92,1.709 -1.716,2.18 -0.438,0.26 -1.038,-0.485 -1.503,-0.275 -2.03,0.914 -3.836,2.267 -5.682,3.512 -0.278,0.188 -0.545,0.446 -0.658,0.762 -0.118,0.329 -0.2,0.771 0.011,1.05 m -111.368,0.139 c 0,0 0,0 0,0 0.582,-0.504 1.605,-0.756 1.747,-1.514 0.097,-0.514 -1.076,0.087 -1.528,0.347 -0.374,0.216 -0.739,0.58 -0.818,1.005 m 8.587,-3.975 c 0,0 0,0 0,0 -0.437,-0.12 -0.858,-0.351 -1.31,-0.359 -0.146,-0.002 -0.405,0.255 -0.282,0.332 0.387,0.245 0.875,0.325 1.332,0.332 m 65.428,-1.309 c 0,0 0,0 0,0 0.295,-0.33 0.784,-0.56 0.885,-0.991 0.104,-0.446 0.077,-1.521 -0.341,-1.333 -1.012,0.456 -1.966,1.403 -2.219,2.484 m -59.493,-1.009 c 0,0 0,0 0,0 0.688,-0.723 1.496,-1.347 2.065,-2.168 0.088,-0.127 -0.216,-0.379 -0.352,-0.304 -0.749,0.411 -1.19,1.336 -2.002,1.597 -0.37,0.119 -0.593,-0.558 -0.972,-0.641 -0.408,-0.09 -1.511,-0.167 -1.244,0.154 m 66.532,0.229 c 0,0 0,0 0,0 -0.105,-0.449 0.146,-1.334 -0.314,-1.346 -0.456,-0.011 -0.436,0.885 -0.332,1.329 m 2.621,-0.852 c 0,0 0,0 0,0 0.687,-0.721 1.505,-1.338 2.063,-2.163 0.093,-0.139 -0.229,-0.405 -0.378,-0.33 -0.861,0.43 -1.768,0.916 -2.34,1.69 -0.204,0.276 0.17,0.687 0.387,0.953 m 49.234,-1.113 c 0,0 0,0 0,0 2.571,-1.177 5.027,-2.648 7.714,-3.532 0.392,-0.129 0.672,0.796 1.057,0.646 1.246,-0.484 2.289,-1.414 3.267,-2.326 0.149,-0.14 -0.401,-0.249 -0.59,-0.172 -0.948,0.384 -1.68,1.27 -2.677,1.498 -0.403,0.092 -0.658,-0.75 -1.058,-0.646 -1.085,0.282 -1.817,1.453 -2.916,1.679 -0.705,0.146 -1.354,-0.803 -2.059,-0.655 -0.348,0.074 0.462,0.804 0.203,1.047 -0.879,0.826 -2.245,0.97 -3.17,1.744 m -44.691,-0.453 c 0,0 0,0 0,0 0.218,-0.447 0.199,-1.14 0.653,-1.342 0.36,-0.159 0.633,0.51 1.015,0.603 0.137,0.034 0.322,-0.133 0.324,-0.275 0.006,-0.464 0.102,-1.13 -0.301,-1.36 -0.448,-0.254 -1.058,0.084 -1.509,0.332 -0.38,0.21 -0.767,0.552 -0.862,0.976 -0.1,0.447 0.098,0.945 0.345,1.332 m -60.545,-0.282 c 0,0 0,0 0,0 0.281,-0.34 0.683,-0.609 0.842,-1.021 0.055,-0.141 -0.184,-0.387 -0.321,-0.323 -0.803,0.379 -1.873,0.682 -2.194,1.509 m 66.507,-2.016 c 0,0 0,0 0,0 0.689,-0.722 1.509,-1.337 2.066,-2.165 0.096,-0.142 -0.221,-0.459 -0.364,-0.364 -0.827,0.555 -1.608,1.234 -2.164,2.06 m 55.622,-1.683 c 0,0 0,0 0,0 0.283,-0.34 0.679,-0.612 0.849,-1.02 0.055,-0.13 -0.179,-0.373 -0.298,-0.298 -0.52,0.326 -1.065,0.735 -1.301,1.301 m -113.378,0.005 c 0,0 0,0 0,0 -0.218,-0.013 -0.603,-0.251 -0.656,-0.039 -0.112,0.444 -0.125,1.306 0.332,1.333 m 64.29,-2.275 c 0,0 0,0 0,0 -0.437,-0.12 -0.858,-0.351 -1.31,-0.359 -0.146,-0.002 -0.405,0.255 -0.282,0.332 0.387,0.245 0.875,0.325 1.332,0.332 m -59.058,0.129 c 0,0 0,0 0,0 0.444,-0.153 1.7,-0.163 1.334,-0.457 -0.613,-0.491 -1.553,-0.453 -2.33,-0.341 -0.223,0.032 -0.172,0.535 0.003,0.676 m 5.311,-1.312 c 0,0 0,0 0,0 -0.437,-0.12 -0.858,-0.351 -1.31,-0.359 -0.146,-0.002 -0.405,0.255 -0.282,0.332 0.387,0.245 0.875,0.325 1.332,0.332 m 56.646,-0.34 c 0,0 0,0 0,0 0.218,0.013 0.603,0.251 0.656,0.038 0.112,-0.444 0.125,-1.305 -0.332,-1.332 m 5.29,-0.671 c 0,0 0,0 0,0 -0.428,-0.165 -0.825,-0.488 -1.283,-0.493 -0.463,-0.005 -1.305,0.003 -1.309,0.466 -0.004,0.461 0.84,0.463 1.301,0.467 m -54.977,-1.948 c 0,0 0,0 0,0 -0.002,0.268 -0.259,0.886 -0.004,0.804 0.846,-0.273 1.755,-0.74 2.197,-1.511 0.207,-0.362 -0.846,-0.281 -1.243,-0.153 m -76.706,0.565 c 0,0 0,0 0,0 3.153,-1.159 6.406,-2.074 9.458,-3.476 1.314,-0.603 2.266,-1.827 3.548,-2.495 6.382,-3.324 13.031,-6.12 19.405,-9.46 0.657,-0.344 0.975,-1.147 1.6,-1.546 4,-2.554 8.265,-4.682 12.233,-7.287 0.748,-0.491 1.401,-1.174 1.842,-1.953 0.107,-0.189 -0.409,-0.277 -0.616,-0.212 -1.5,0.473 -3.056,0.915 -4.368,1.782 -0.781,0.517 -0.938,1.696 -1.705,2.233 -1.967,1.376 -4.288,2.172 -6.349,3.403 -1.257,0.752 -2.275,1.889 -3.59,2.536 -2.625,1.29 -5.543,1.923 -8.157,3.236 -5.402,2.715 -10.387,6.226 -15.845,8.826 -3.827,1.823 -8.281,2.245 -11.929,4.404 m 86.413,-0.996 c 0,0 0,0 0,0 -1.06,-0.515 -2.067,-1.158 -3.18,-1.546 -0.144,-0.05 -0.398,0.193 -0.323,0.326 0.304,0.538 0.687,1.148 1.271,1.352 m 61.328,-1.187 c 0,0 0,0 0,0 0.582,-0.504 1.605,-0.756 1.747,-1.514 0.097,-0.514 -1.076,0.087 -1.528,0.347 -0.374,0.216 -0.739,0.58 -0.818,1.005 m 5.587,-1.975 c 0,0 0,0 0,0 -0.437,-0.12 -0.858,-0.351 -1.31,-0.359 -0.146,-0.002 -0.405,0.255 -0.282,0.332 0.387,0.245 0.875,0.325 1.332,0.332 m 2.422,-1.312 c 0,0 0,0 0,0 0.283,-0.34 0.679,-0.612 0.849,-1.02 0.055,-0.13 -0.179,-0.373 -0.298,-0.298 -0.52,0.326 -1.065,0.735 -1.301,1.301 m -55.25,0.018 c 0,0 0,0 0,0 1.588,-1.069 3.388,-1.875 4.764,-3.205 0.307,-0.298 -0.869,-0.316 -1.272,-0.172 -0.962,0.345 -1.833,0.937 -2.634,1.571 -0.629,0.498 -1.264,1.064 -1.608,1.788 m 69.607,-6.827 c 0,0 0,0 0,0 0.58,-0.509 1.997,-0.798 1.74,-1.526 -0.238,-0.676 -1.333,0.638 -2.049,0.649 -0.39,0.007 -0.627,-0.507 -1.006,-0.599 -0.137,-0.034 -0.322,0.133 -0.324,0.275 -0.007,0.464 -0.074,1.085 0.3,1.359 m 6.244,-2.144 c 0,0 0,0 0,0 -0.731,-0.503 -1.392,-1.129 -2.194,-1.51 -0.135,-0.064 -0.392,0.188 -0.317,0.318 0.306,0.535 0.712,1.079 1.268,1.343 m 3.331,-1.177 c 0,0 0,0 0,0 0.582,-0.504 1.605,-0.756 1.747,-1.514 0.097,-0.514 -1.076,0.087 -1.528,0.347 -0.374,0.216 -0.739,0.58 -0.818,1.005 m 6.756,-2.989 c 0,0 0,0 0,0 0.586,-0.741 0.974,-1.694 1.757,-2.221 0.258,-0.175 0.495,0.617 0.787,0.506 0.572,-0.218 1.297,-0.689 1.296,-1.302 -0.002,-0.444 -0.859,0.364 -1.299,0.303 -0.397,-0.054 -0.64,-0.719 -1.029,-0.622 -0.994,0.248 -1.825,0.947 -2.66,1.541 -0.27,0.192 -0.529,0.463 -0.609,0.784 -0.044,0.181 0.167,0.34 0.298,0.471 0.308,0.308 0.599,0.68 1.006,0.83 m -123.718,-8.121 c 0,0 0,0 0,0 1.465,-0.798 2.986,-1.499 4.393,-2.395 0.283,-0.18 0.898,-0.609 0.618,-0.794 -0.653,-0.432 -1.561,-0.506 -2.325,-0.335 -0.364,0.081 -0.278,0.717 -0.547,0.976 -0.73,0.703 -1.751,1.087 -2.403,1.864 m 87.427,-0.477 c 0,0 0,0 0,0 0.276,-0.258 0.491,-0.605 0.829,-0.776 4.421,-2.247 8.991,-4.196 13.406,-6.458 2.391,-1.225 4.74,-2.543 6.998,-3.999 0.62,-0.399 0.959,-1.157 1.591,-1.538 1.074,-0.647 2.375,-0.855 3.45,-1.5 0.616,-0.37 0.934,-1.13 1.55,-1.5 1.076,-0.646 2.37,-0.867 3.453,-1.503 3.733,-2.192 7.401,-4.501 10.962,-6.962 0.661,-0.457 1.246,-1.063 1.652,-1.757 0.177,-0.304 0.298,-0.881 -0.007,-1.057 -0.694,-0.4 -1.696,-0.737 -2.381,-0.323 -0.43,0.26 0.952,0.834 0.763,1.3 -0.344,0.849 -1.246,1.385 -2.039,1.844 -1.714,0.991 -3.697,1.46 -5.405,2.461 -1.052,0.616 -1.759,1.719 -2.803,2.348 -8.25,4.967 -16.535,9.892 -25.037,14.414 -2.582,1.373 -5.494,2.022 -8.154,3.237 -0.287,0.131 -0.506,0.443 -0.576,0.751 -0.042,0.181 0.166,0.339 0.297,0.47 0.307,0.307 0.598,0.676 1.004,0.829 m -117.708,-2.107 c 0,0 0,0 0,0 2.129,-1.135 4.337,-2.135 6.388,-3.407 0.627,-0.388 0.959,-1.157 1.591,-1.538 1.074,-0.647 2.423,-0.781 3.45,-1.5 2.348,-1.646 4.272,-3.84 6.585,-5.535 2.685,-1.967 5.653,-3.521 8.38,-5.43 0.62,-0.434 0.965,-1.222 1.633,-1.578 4.36,-2.326 8.963,-4.168 13.36,-6.421 0.299,-0.152 0.545,-0.445 0.658,-0.761 0.118,-0.33 0.207,-0.776 -0.011,-1.05 -0.166,-0.21 -0.566,-0.1 -0.803,0.024 -1.092,0.571 -1.998,1.459 -3.096,2.018 -3.661,1.863 -7.498,3.37 -11.158,5.236 -1.056,0.538 -2.043,1.216 -2.963,1.962 -0.938,0.76 -1.581,1.865 -2.585,2.535 -2.022,1.348 -4.425,2.07 -6.415,3.465 -1.39,0.974 -2.236,2.6 -3.626,3.573 -1.974,1.382 -4.325,2.146 -6.368,3.424 -0.646,0.403 -0.98,1.215 -1.645,1.586 -1.936,1.078 -4.189,1.539 -6.07,2.71 -0.259,0.161 0.08,0.758 0.375,0.833 m 51.313,-6.158 c 0,0 0,0 0,0 1.975,-1.123 4.118,-1.993 5.927,-3.368 0.34,-0.259 -0.875,-0.331 -1.272,-0.171 -1.729,0.701 -3.152,2.069 -4.916,2.679 -0.379,0.131 -0.635,-0.68 -1.032,-0.622 -0.255,0.038 -0.165,0.579 0.005,0.773 m 9.451,-3.454 c 0,0 0,0 0,0 0.283,-0.339 0.935,-0.583 0.85,-1.016 -0.118,-0.603 -0.691,-1.3 -1.306,-1.303 -0.444,-0.002 0.36,0.858 0.303,1.299 -0.049,0.386 -0.655,0.619 -0.597,1.004 m 4.6,-1.84 c 0,0 0,0 0,0 0.582,-0.504 1.605,-0.756 1.747,-1.514 0.097,-0.514 -1.076,0.087 -1.528,0.347 -0.374,0.216 -0.739,0.58 -0.818,1.005 m 4.277,-1.712 c 0,0 0,0 0,0 0.44,-0.43 1.315,-0.675 1.319,-1.29 0.004,-0.613 -0.69,-1.299 -1.303,-1.299 -0.444,10e-4 0.36,0.858 0.303,1.299 -0.05,0.388 -0.506,0.628 -0.6,1.007 m 4.759,-1.984 c 0,0 0,0 0,0 0.281,-0.34 0.683,-0.609 0.842,-1.021 0.055,-0.141 -0.184,-0.387 -0.321,-0.323 -0.803,0.379 -1.873,0.682 -2.194,1.509 m 5.429,-1.998 c 0,0 0,0 0,0 -0.731,-0.503 -1.392,-1.129 -2.194,-1.51 -0.135,-0.064 -0.392,0.188 -0.317,0.318 0.306,0.535 0.712,1.079 1.268,1.343 m -25.674,-10.149 c 0,0 0,0 0,0 0.893,-0.561 1.955,-0.916 2.679,-1.683 0.36,-0.382 0.475,-1.023 0.354,-1.534 -0.054,-0.23 -0.504,-0.081 -0.708,0.038 -1.67,0.965 -3.701,1.613 -4.839,3.169 m 7.669,-3.161 c 0,0 0,0 0,0 2.254,-1.402 4.689,-2.549 6.764,-4.206 0.335,-0.268 -0.864,-0.295 -1.276,-0.175 -1.282,0.372 -2.548,0.88 -3.665,1.611 -0.897,0.586 -1.634,1.414 -2.274,2.274 -0.155,0.207 -0.175,0.585 -0.001,0.777 m 10.317,-6.261 c 0,0 0,0 0,0 -0.105,-0.449 0.147,-1.334 -0.314,-1.346 -0.456,-0.011 -0.436,0.885 -0.332,1.329 m -46.217,-1.004 c 0,0 0,0 0,0 1.692,-1.009 3.291,-2.194 5.077,-3.027 2.654,-1.239 5.539,-1.934 8.195,-3.167 8.247,-3.829 16.519,-7.636 24.491,-12.008 0.665,-0.365 -1.574,-0.482 -2.271,-0.18 -12.109,5.248 -23.737,11.574 -35.891,16.718 -0.663,0.281 -1.343,-0.736 -2.058,-0.654 -0.33,0.037 -0.56,0.663 -0.36,0.928 0.58,0.769 1.476,1.268 2.34,1.694 m 53.332,-3.148 c 0,0 0,0 0,0 0.581,-0.509 1.532,-0.783 1.741,-1.526 0.124,-0.439 -0.946,-0.023 -1.36,0.171 -0.707,0.333 -1.693,0.615 -1.905,1.367 m 5.517,-2.023 c 0,0 0,0 0,0 0.583,-0.505 2.001,-0.787 1.747,-1.515 -0.236,-0.676 -1.333,0.637 -2.049,0.649 -0.389,0.007 -0.62,-0.664 -1.004,-0.597 -0.254,0.044 -0.167,0.58 0.005,0.772 m 5.301,-1.309 c 0,0 0,0 0,0 0.583,-0.505 2.001,-0.787 1.747,-1.515 -0.236,-0.676 -1.333,0.637 -2.049,0.649 -0.389,0.007 -0.62,-0.664 -1.004,-0.597 -0.254,0.044 -0.167,0.58 0.005,0.772 m 5.451,-1.454 c 0,0 0,0 0,0 0.283,-0.34 0.679,-0.612 0.849,-1.02 0.055,-0.13 -0.179,-0.373 -0.298,-0.298 -0.52,0.326 -1.065,0.735 -1.301,1.301 m 9.6,-4.839 c 0,0 0,0 0,0 0.575,-0.54 1.442,-0.884 1.725,-1.62 0.132,-0.345 -0.498,-0.945 -0.813,-0.753 -0.76,0.464 -1.215,1.355 -1.534,2.186 m 7.61,-2.957 c 0,0 0,0 0,0 -0.271,-0.339 -0.45,-0.781 -0.815,-1.016 -0.217,-0.139 -0.787,-0.265 -0.774,-0.008 0.022,0.433 0.461,0.769 0.825,1.003 m 5.764,-1.972 c 0,0 0,0 0,0 -0.437,-0.12 -0.858,-0.351 -1.31,-0.359 -0.146,-0.002 -0.405,0.255 -0.282,0.332 0.387,0.245 0.875,0.325 1.332,0.332 m -45.713,-0.291 c 0,0 0,0 0,0 -0.095,-0.459 0.109,-1.122 -0.285,-1.376 -0.384,-0.249 -1.17,-0.098 -1.333,0.33 -0.153,0.405 0.463,0.769 0.827,1.004 m 2.764,-0.82 c 0,0 0,0 0,0 1.123,-0.587 2.326,-1.042 3.37,-1.761 0.617,-0.425 0.87,-1.314 1.55,-1.629 0.296,-0.136 0.51,0.633 0.82,0.532 0.841,-0.274 1.749,-0.739 2.185,-1.509 0.206,-0.363 -0.836,-0.244 -1.244,-0.154 -0.379,0.083 -0.583,0.633 -0.971,0.641 -0.389,0.009 -0.65,-0.767 -1.001,-0.598 -1.948,0.937 -3.791,2.167 -5.358,3.657 m 51.669,-1.208 c 0,0 0,0 0,0 -0.097,-0.823 -0.283,-1.641 -0.29,-2.469 -0.004,-0.45 0.34,0.874 0.279,1.319 -0.052,0.385 -0.6,0.614 -0.596,1.002 m 7.592,-2.808 c 0,0 0,0 0,0 1.307,-0.792 2.812,-1.326 3.921,-2.378 0.304,-0.287 -0.836,-0.247 -1.245,-0.158 -0.378,0.082 -0.583,0.611 -0.969,0.64 -0.313,0.023 -0.507,-0.639 -0.792,-0.509 -0.671,0.305 -0.843,1.373 -1.552,1.575 -0.574,0.162 -1.067,-0.702 -1.662,-0.663 -0.257,0.018 -0.127,0.552 0.004,0.773 0.222,0.373 0.557,0.738 0.971,0.867 m -46.519,-0.322 c 0,0 0,0 0,0 0.284,-0.34 0.678,-0.612 0.851,-1.02 0.056,-0.132 -0.135,-0.326 -0.278,-0.329 -0.464,-0.007 -1.113,-0.092 -1.359,0.301 -0.244,0.388 0.058,0.966 0.333,1.332 m 54.453,-3.284 c 0,0 0,0 0,0 0.284,-0.34 0.678,-0.612 0.851,-1.02 0.056,-0.132 -0.135,-0.326 -0.278,-0.329 -0.464,-0.007 -1.113,-0.092 -1.359,0.301 -0.244,0.388 0.058,0.966 0.333,1.332 m -47.707,-0.281 c 0,0 0,0 0,0 -0.272,-0.339 -0.451,-0.782 -0.817,-1.018 -0.225,-0.145 -0.71,-0.28 -0.805,-0.029 -0.164,0.434 -0.089,1.108 0.301,1.359 m 3.298,-1.136 c 0,0 0,0 0,0 0.928,-0.519 2.344,-0.59 2.784,-1.557 0.287,-0.631 -1.437,-0.253 -2.079,0.008 -0.573,0.233 -1.015,0.789 -1.271,1.352 m 50.621,-1.956 c 0,0 0,0 0,0 -0.108,-0.782 0.465,-2.321 -0.324,-2.347 -0.783,-0.026 -0.444,1.549 -0.337,2.325 m -44.21,-0.003 c 0,0 0,0 0,0 0.516,-0.515 1.142,-0.94 1.547,-1.545 0.143,-0.215 0.242,-0.872 0.004,-0.774 -0.79,0.326 -1.193,1.329 -2.003,1.598 -0.37,0.123 -0.626,-0.509 -1.005,-0.597 -0.135,-0.032 -0.369,0.177 -0.295,0.294 0.328,0.521 0.772,0.996 1.303,1.306 m 4.265,-3.104 c 0,0 0,0 0,0 0.921,-0.551 2.206,-0.736 2.762,-1.654 0.26,-0.431 -0.867,-0.912 -1.329,-0.715 -0.914,0.392 -1.54,1.312 -2.055,2.163 m -52.382,-2.769 c 0,0 0,0 0,0 10.734,-4.738 21.508,-9.384 32.201,-14.213 2.046,-0.924 4.114,-1.839 6.01,-3.042 0.764,-0.484 1.427,-1.176 1.876,-1.961 0.112,-0.196 -0.445,-0.27 -0.651,-0.18 -6.876,2.989 -13.689,6.126 -20.455,9.355 -1.564,0.747 -2.93,1.881 -4.522,2.567 -5.635,2.427 -11.534,4.224 -17.122,6.757 -0.278,0.126 0.08,0.756 0.374,0.835 m 68.314,-2.314 c 0,0 0,0 0,0 -0.437,-0.12 -0.858,-0.351 -1.31,-0.359 -0.146,-0.002 -0.405,0.255 -0.282,0.332 0.387,0.245 0.875,0.325 1.332,0.332 m 3.26,-1.305 c 0,0 0,0 0,0 -0.437,-0.12 -0.858,-0.351 -1.31,-0.359 -0.146,-0.002 -0.405,0.255 -0.282,0.332 0.387,0.245 0.875,0.325 1.332,0.332 m 10.26,-4.305 c 0,0 0,0 0,0 -0.437,-0.12 -0.858,-0.351 -1.31,-0.359 -0.146,-0.002 -0.405,0.255 -0.282,0.332 0.387,0.245 0.875,0.325 1.332,0.332 m 8.26,-3.312 c 0,0 0,0 0,0 -0.271,-0.339 -0.45,-0.781 -0.815,-1.016 -0.217,-0.139 -0.787,-0.265 -0.774,-0.008 0.022,0.433 0.461,0.769 0.825,1.003 m 3.764,-0.979 c 0,0 0,0 0,0 -0.198,-0.338 -0.594,-0.623 -0.593,-1.016 0.002,-0.391 0.512,-0.627 0.602,-1.008 0.031,-0.135 -0.178,-0.369 -0.295,-0.295 -0.52,0.327 -1.179,0.699 -1.303,1.299 -0.088,0.423 0.462,0.766 0.825,0.999 m -47.238,-7.816 c 0,0 0,0 0,0 2.457,-1.255 5.011,-2.337 7.372,-3.765 0.642,-0.387 0.869,-1.316 1.55,-1.629 0.299,-0.137 0.511,0.633 0.826,0.539 1.211,-0.362 2.309,-1.065 3.347,-1.786 0.144,-0.1 0.1,-0.398 -0.021,-0.525 -0.156,-0.166 -0.444,-0.276 -0.657,-0.192 -0.952,0.373 -1.679,1.27 -2.676,1.498 -0.403,0.092 -0.681,-0.814 -1.058,-0.646 -2.708,1.209 -5.205,2.863 -7.655,4.534 -0.663,0.453 -1.241,1.078 -1.613,1.79 m -26.336,-4.973 c 0,0 0,0 0,0 2.635,-1.591 5.168,-3.367 7.906,-4.775 8.973,-4.616 18.266,-8.598 27.203,-13.285 0.803,-0.421 1.688,-1.079 1.88,-1.966 0.101,-0.463 -0.923,-0.455 -1.382,-0.335 -0.311,0.081 -0.219,0.668 -0.499,0.828 -1.417,0.806 -3.029,1.222 -4.464,1.995 -1.822,0.981 -3.475,2.254 -5.284,3.257 -1.956,1.085 -3.957,2.097 -6.003,3.002 -2.109,0.932 -4.359,1.528 -6.449,2.503 -2.252,1.051 -4.327,2.45 -6.549,3.562 -1.187,0.594 -2.39,1.192 -3.667,1.552 -0.867,0.244 -1.914,-0.218 -2.692,0.236 -0.837,0.489 -1.383,1.435 -1.723,2.343 -0.166,0.446 -0.076,1.136 0.327,1.389 m 44.294,-2.112 c 0,0 0,0 0,0 2.819,-1.137 5.709,-2.109 8.456,-3.41 0.949,-0.45 1.834,-1.071 2.575,-1.815 0.146,-0.148 -0.407,-0.239 -0.602,-0.167 -1.932,0.72 -3.684,1.902 -5.658,2.498 -0.315,0.096 -0.525,-0.67 -0.826,-0.539 -0.676,0.294 -0.853,1.342 -1.552,1.575 -0.495,0.164 -0.944,-0.683 -1.454,-0.576 -0.68,0.143 -1.04,0.968 -1.682,1.233 -0.191,0.079 -0.396,-0.477 -0.529,-0.32 -0.296,0.347 -0.62,0.978 -0.327,1.328 m 14.626,-5.857 c 0,0 0,0 0,0 0.687,-0.721 1.505,-1.338 2.063,-2.163 0.093,-0.139 -0.229,-0.405 -0.378,-0.33 -0.861,0.43 -1.768,0.916 -2.34,1.69 -0.204,0.276 0.17,0.687 0.387,0.953 m -16.571,-12.303 c 0,0 0,0 0,0 0.608,-0.589 1.092,-1.341 1.823,-1.769 1.707,-0.999 3.649,-1.54 5.402,-2.458 1.715,-0.899 3.447,-1.806 4.985,-2.983 0.674,-0.515 0.84,-1.557 1.553,-2.017 0.262,-0.169 0.479,0.455 0.787,0.506 0.183,0.03 0.325,-0.181 0.47,-0.297 0.976,-0.774 2.027,-1.472 2.89,-2.37 0.145,-0.151 0.157,-0.501 -0.01,-0.626 -0.221,-0.166 -0.586,-0.138 -0.828,-0.004 -0.585,0.321 -0.881,1.12 -1.524,1.298 -0.375,0.104 -0.681,-0.819 -1.002,-0.598 -1.305,0.9 -1.946,2.555 -3.215,3.507 -0.249,0.187 -0.478,-0.553 -0.786,-0.506 -0.619,0.094 -1.166,0.492 -1.659,0.877 -0.591,0.462 -0.873,1.307 -1.549,1.632 -0.284,0.135 -0.49,-0.584 -0.794,-0.508 -0.323,0.081 -0.265,0.652 -0.539,0.84 -2.074,1.425 -4.476,2.369 -6.434,3.95 -0.407,0.329 -0.495,1.027 -0.353,1.532 m -26.374,-3.83 c 0,0 0,0 0,0 4.463,-2.469 9.011,-4.789 13.388,-7.407 0.649,-0.388 1.02,-1.132 1.632,-1.576 0.683,-0.496 1.465,-0.839 2.219,-1.218 7.233,-3.634 14.407,-7.391 21.739,-10.82 2.642,-1.235 5.542,-1.872 8.159,-3.159 1.722,-0.847 3.636,-1.665 4.782,-3.204 0.452,-0.608 -1.543,-0.392 -2.269,-0.173 -1.308,0.394 -2.484,1.166 -3.606,1.944 -0.616,0.427 -0.869,1.316 -1.55,1.629 -0.299,0.137 -0.506,-0.613 -0.826,-0.54 -1.303,0.301 -2.507,0.954 -3.689,1.579 -0.486,0.258 -0.735,0.942 -1.274,1.049 -0.382,0.076 -0.617,-0.646 -1.003,-0.597 -0.314,0.04 -0.24,0.651 -0.522,0.793 -5.9,2.971 -12.086,5.367 -17.908,8.489 -2.465,1.322 -4.505,3.328 -6.882,4.803 -2.91,1.806 -5.922,3.446 -8.96,5.028 -1.105,0.576 -2.369,0.822 -3.453,1.438 -0.914,0.519 -2.5,0.885 -2.488,1.936 m 5.666,-17.168 c 0,0 0,0 0,0 0.276,-0.258 0.486,-0.616 0.829,-0.776 3.434,-1.607 7.056,-2.803 10.447,-4.498 1.293,-0.646 2.298,-1.764 3.545,-2.494 2.04,-1.194 4.112,-2.357 6.294,-3.267 2.996,-1.248 6.209,-1.928 9.2,-3.189 0.969,-0.408 2.512,-0.737 2.6,-1.785 0.067,-0.813 -1.635,-0.598 -2.42,-0.374 -3.003,0.856 -5.861,2.181 -8.674,3.538 -4.368,2.107 -8.53,4.618 -12.841,6.841 -1.865,0.961 -3.745,1.901 -5.681,2.71 -1.462,0.612 -3.051,0.894 -4.496,1.545 -0.278,0.125 -0.488,0.432 -0.551,0.731 -0.039,0.182 0.166,0.339 0.297,0.47 0.307,0.307 0.598,0.676 1.004,0.829 m 51.448,-11.282 c 0,0 0,0 0,0 0.283,-0.34 0.679,-0.612 0.849,-1.02 0.055,-0.13 -0.179,-0.373 -0.298,-0.298 -0.52,0.326 -1.065,0.735 -1.301,1.301 m -15.412,-4.824 c 0,0 0,0 0,0 0.894,-0.552 1.859,-1.002 2.681,-1.655 0.528,-0.418 1.053,-0.909 1.326,-1.525 0.08,-0.182 -0.371,-0.262 -0.56,-0.203 -1.196,0.372 -2.358,0.867 -3.462,1.457 -0.279,0.149 -0.577,0.408 -0.616,0.723 -0.056,0.462 0.147,0.936 0.363,1.348"
           id="path21" />
      </g>
    </g>
  </g>
</svg>
